STARTFONT 2.1
COMMENT
COMMENT Converted from OpenType font "PxPlus_IBM_MDA.ttf" by "otf2bdf 3.0".
COMMENT
FONT -FreeType-PxPlus IBM MDA-Medium-R-Normal--17-120-100-100-P-73-ISO10646-1
SIZE 12 100 100
FONTBOUNDINGBOX 9 15 0 -3
STARTPROPERTIES 19
FOUNDRY "FreeType"
FAMILY_NAME "PxPlus IBM MDA"
WEIGHT_NAME "Medium"
SLANT "R"
SETWIDTH_NAME "Normal"
ADD_STYLE_NAME ""
PIXEL_SIZE 17
POINT_SIZE 120
RESOLUTION_X 100
RESOLUTION_Y 100
SPACING "P"
AVERAGE_WIDTH 73
CHARSET_REGISTRY "ISO10646"
CHARSET_ENCODING "1"
FONT_ASCENT 11
FONT_DESCENT 3
COPYRIGHT "Outline (vector) version by VileR, 2020"
_OTF_FONTFILE "PxPlus_IBM_MDA.ttf"
_OTF_PSNAME "PxPlus_IBM_MDA"
ENDPROPERTIES
CHARS 781
STARTCHAR 0000
ENCODING 0
SWIDTH 540 0
DWIDTH 9 0
BBX 0 0 0 0
BITMAP
ENDCHAR
STARTCHAR 0001
ENCODING 1
SWIDTH 540 0
DWIDTH 9 0
BBX 8 9 0 0
BITMAP
7E
81
A5
81
81
BD
99
81
7E
ENDCHAR
STARTCHAR 0002
ENCODING 2
SWIDTH 540 0
DWIDTH 9 0
BBX 8 9 0 0
BITMAP
7E
FF
DB
FF
FF
C3
E7
FF
7E
ENDCHAR
STARTCHAR 0003
ENCODING 3
SWIDTH 540 0
DWIDTH 9 0
BBX 7 8 1 0
BITMAP
6C
FE
FE
FE
FE
7C
38
10
ENDCHAR
STARTCHAR 0004
ENCODING 4
SWIDTH 540 0
DWIDTH 9 0
BBX 7 7 1 1
BITMAP
10
38
7C
FE
7C
38
10
ENDCHAR
STARTCHAR 0005
ENCODING 5
SWIDTH 540 0
DWIDTH 9 0
BBX 8 9 0 0
BITMAP
18
3C
3C
E7
E7
E7
18
18
3C
ENDCHAR
STARTCHAR 0006
ENCODING 6
SWIDTH 540 0
DWIDTH 9 0
BBX 8 9 0 0
BITMAP
18
3C
7E
FF
FF
7E
18
18
3C
ENDCHAR
STARTCHAR 0007
ENCODING 7
SWIDTH 540 0
DWIDTH 9 0
BBX 4 4 2 2
BITMAP
60
F0
F0
60
ENDCHAR
STARTCHAR 0008
ENCODING 8
SWIDTH 540 0
DWIDTH 9 0
BBX 8 14 0 -3
BITMAP
FF
FF
FF
FF
FF
E7
C3
C3
E7
FF
FF
FF
FF
FF
ENDCHAR
STARTCHAR 0009
ENCODING 9
SWIDTH 540 0
DWIDTH 9 0
BBX 6 6 1 1
BITMAP
78
CC
84
84
CC
78
ENDCHAR
STARTCHAR 000A
ENCODING 10
SWIDTH 540 0
DWIDTH 9 0
BBX 8 14 0 -3
BITMAP
FF
FF
FF
FF
C3
99
BD
BD
99
C3
FF
FF
FF
FF
ENDCHAR
STARTCHAR 000B
ENCODING 11
SWIDTH 540 0
DWIDTH 9 0
BBX 6 9 1 0
BITMAP
78
CC
CC
CC
78
30
FC
30
30
ENDCHAR
STARTCHAR 000C
ENCODING 12
SWIDTH 540 0
DWIDTH 9 0
BBX 7 9 1 0
BITMAP
1E
0E
1A
32
78
CC
CC
CC
78
ENDCHAR
STARTCHAR 000D
ENCODING 13
SWIDTH 540 0
DWIDTH 9 0
BBX 8 9 0 0
BITMAP
3F
33
3F
30
30
30
70
F0
E0
ENDCHAR
STARTCHAR 000E
ENCODING 14
SWIDTH 540 0
DWIDTH 9 0
BBX 8 10 0 -1
BITMAP
7F
63
7F
63
63
63
67
E7
E6
C0
ENDCHAR
STARTCHAR 000F
ENCODING 15
SWIDTH 540 0
DWIDTH 9 0
BBX 8 9 0 0
BITMAP
18
18
DB
3C
E7
3C
DB
18
18
ENDCHAR
STARTCHAR 0010
ENCODING 16
SWIDTH 540 0
DWIDTH 9 0
BBX 7 9 1 0
BITMAP
80
C0
E0
F8
FE
F8
E0
C0
80
ENDCHAR
STARTCHAR 0011
ENCODING 17
SWIDTH 540 0
DWIDTH 9 0
BBX 7 9 1 0
BITMAP
02
06
0E
3E
FE
3E
0E
06
02
ENDCHAR
STARTCHAR 0012
ENCODING 18
SWIDTH 540 0
DWIDTH 9 0
BBX 6 9 1 0
BITMAP
30
78
FC
30
30
30
FC
78
30
ENDCHAR
STARTCHAR 0013
ENCODING 19
SWIDTH 540 0
DWIDTH 9 0
BBX 6 9 2 0
BITMAP
CC
CC
CC
CC
CC
CC
00
CC
CC
ENDCHAR
STARTCHAR 0014
ENCODING 20
SWIDTH 540 0
DWIDTH 9 0
BBX 8 9 0 0
BITMAP
7F
DB
DB
DB
7B
1B
1B
1B
1B
ENDCHAR
STARTCHAR 0015
ENCODING 21
SWIDTH 540 0
DWIDTH 9 0
BBX 7 12 1 -2
BITMAP
7C
C6
60
38
6C
C6
C6
6C
38
0C
C6
7C
ENDCHAR
STARTCHAR 0016
ENCODING 22
SWIDTH 540 0
DWIDTH 9 0
BBX 7 3 1 0
BITMAP
FE
FE
FE
ENDCHAR
STARTCHAR 0017
ENCODING 23
SWIDTH 540 0
DWIDTH 9 0
BBX 6 10 1 -1
BITMAP
30
78
FC
30
30
30
FC
78
30
FC
ENDCHAR
STARTCHAR 0018
ENCODING 24
SWIDTH 540 0
DWIDTH 9 0
BBX 6 9 1 0
BITMAP
30
78
FC
30
30
30
30
30
30
ENDCHAR
STARTCHAR 0019
ENCODING 25
SWIDTH 540 0
DWIDTH 9 0
BBX 6 9 1 0
BITMAP
30
30
30
30
30
30
FC
78
30
ENDCHAR
STARTCHAR 001A
ENCODING 26
SWIDTH 540 0
DWIDTH 9 0
BBX 7 5 1 2
BITMAP
18
0C
FE
0C
18
ENDCHAR
STARTCHAR 001B
ENCODING 27
SWIDTH 540 0
DWIDTH 9 0
BBX 7 5 1 2
BITMAP
30
60
FE
60
30
ENDCHAR
STARTCHAR 001C
ENCODING 28
SWIDTH 540 0
DWIDTH 9 0
BBX 7 4 1 2
BITMAP
C0
C0
C0
FE
ENDCHAR
STARTCHAR 001D
ENCODING 29
SWIDTH 540 0
DWIDTH 9 0
BBX 8 5 0 2
BITMAP
24
66
FF
66
24
ENDCHAR
STARTCHAR 001E
ENCODING 30
SWIDTH 540 0
DWIDTH 9 0
BBX 7 7 1 1
BITMAP
10
38
38
7C
7C
FE
FE
ENDCHAR
STARTCHAR 001F
ENCODING 31
SWIDTH 540 0
DWIDTH 9 0
BBX 7 7 1 1
BITMAP
FE
FE
7C
7C
38
38
10
ENDCHAR
STARTCHAR 0020
ENCODING 32
SWIDTH 540 0
DWIDTH 9 0
BBX 0 0 0 0
BITMAP
ENDCHAR
STARTCHAR 0021
ENCODING 33
SWIDTH 540 0
DWIDTH 9 0
BBX 4 9 2 0
BITMAP
60
F0
F0
F0
60
60
00
60
60
ENDCHAR
STARTCHAR 0022
ENCODING 34
SWIDTH 540 0
DWIDTH 9 0
BBX 7 4 1 6
BITMAP
C6
C6
C6
44
ENDCHAR
STARTCHAR 0023
ENCODING 35
SWIDTH 540 0
DWIDTH 9 0
BBX 7 9 1 0
BITMAP
6C
6C
FE
6C
6C
6C
FE
6C
6C
ENDCHAR
STARTCHAR 0024
ENCODING 36
SWIDTH 540 0
DWIDTH 9 0
BBX 7 13 1 -2
BITMAP
18
18
7C
C6
C2
C0
7C
06
86
C6
7C
18
18
ENDCHAR
STARTCHAR 0025
ENCODING 37
SWIDTH 540 0
DWIDTH 9 0
BBX 7 7 1 0
BITMAP
C2
C6
0C
18
30
66
C6
ENDCHAR
STARTCHAR 0026
ENCODING 38
SWIDTH 540 0
DWIDTH 9 0
BBX 7 9 1 0
BITMAP
38
6C
6C
38
76
DC
CC
CC
76
ENDCHAR
STARTCHAR 0027
ENCODING 39
SWIDTH 540 0
DWIDTH 9 0
BBX 3 4 1 6
BITMAP
60
60
60
C0
ENDCHAR
STARTCHAR 0028
ENCODING 40
SWIDTH 540 0
DWIDTH 9 0
BBX 4 9 2 0
BITMAP
30
60
C0
C0
C0
C0
C0
60
30
ENDCHAR
STARTCHAR 0029
ENCODING 41
SWIDTH 540 0
DWIDTH 9 0
BBX 4 9 3 0
BITMAP
C0
60
30
30
30
30
30
60
C0
ENDCHAR
STARTCHAR 002A
ENCODING 42
SWIDTH 540 0
DWIDTH 9 0
BBX 8 5 0 2
BITMAP
66
3C
FF
3C
66
ENDCHAR
STARTCHAR 002B
ENCODING 43
SWIDTH 540 0
DWIDTH 9 0
BBX 8 7 0 1
BITMAP
18
18
18
FF
18
18
18
ENDCHAR
STARTCHAR 002C
ENCODING 44
SWIDTH 540 0
DWIDTH 9 0
BBX 3 4 2 -1
BITMAP
60
60
60
C0
ENDCHAR
STARTCHAR 002D
ENCODING 45
SWIDTH 540 0
DWIDTH 9 0
BBX 8 1 0 4
BITMAP
FF
ENDCHAR
STARTCHAR 002E
ENCODING 46
SWIDTH 540 0
DWIDTH 9 0
BBX 2 2 3 0
BITMAP
C0
C0
ENDCHAR
STARTCHAR 002F
ENCODING 47
SWIDTH 540 0
DWIDTH 9 0
BBX 7 8 1 1
BITMAP
02
06
0C
18
30
60
C0
80
ENDCHAR
STARTCHAR 0030
ENCODING 48
SWIDTH 540 0
DWIDTH 9 0
BBX 7 9 1 0
BITMAP
7C
C6
CE
DE
F6
E6
C6
C6
7C
ENDCHAR
STARTCHAR 0031
ENCODING 49
SWIDTH 540 0
DWIDTH 9 0
BBX 6 9 2 0
BITMAP
30
70
F0
30
30
30
30
30
FC
ENDCHAR
STARTCHAR 0032
ENCODING 50
SWIDTH 540 0
DWIDTH 9 0
BBX 7 9 1 0
BITMAP
7C
C6
06
0C
18
30
60
C6
FE
ENDCHAR
STARTCHAR 0033
ENCODING 51
SWIDTH 540 0
DWIDTH 9 0
BBX 7 9 1 0
BITMAP
7C
C6
06
06
3C
06
06
C6
7C
ENDCHAR
STARTCHAR 0034
ENCODING 52
SWIDTH 540 0
DWIDTH 9 0
BBX 7 9 1 0
BITMAP
0C
1C
3C
6C
CC
FE
0C
0C
1E
ENDCHAR
STARTCHAR 0035
ENCODING 53
SWIDTH 540 0
DWIDTH 9 0
BBX 7 9 1 0
BITMAP
FE
C0
C0
C0
FC
06
06
C6
7C
ENDCHAR
STARTCHAR 0036
ENCODING 54
SWIDTH 540 0
DWIDTH 9 0
BBX 7 9 1 0
BITMAP
38
60
C0
C0
FC
C6
C6
C6
7C
ENDCHAR
STARTCHAR 0037
ENCODING 55
SWIDTH 540 0
DWIDTH 9 0
BBX 7 9 1 0
BITMAP
FE
C6
06
0C
18
30
30
30
30
ENDCHAR
STARTCHAR 0038
ENCODING 56
SWIDTH 540 0
DWIDTH 9 0
BBX 7 9 1 0
BITMAP
7C
C6
C6
C6
7C
C6
C6
C6
7C
ENDCHAR
STARTCHAR 0039
ENCODING 57
SWIDTH 540 0
DWIDTH 9 0
BBX 7 9 1 0
BITMAP
7C
C6
C6
C6
7E
06
06
0C
78
ENDCHAR
STARTCHAR 003A
ENCODING 58
SWIDTH 540 0
DWIDTH 9 0
BBX 2 7 3 1
BITMAP
C0
C0
00
00
00
C0
C0
ENDCHAR
STARTCHAR 003B
ENCODING 59
SWIDTH 540 0
DWIDTH 9 0
BBX 3 8 2 0
BITMAP
60
60
00
00
00
60
60
C0
ENDCHAR
STARTCHAR 003C
ENCODING 60
SWIDTH 540 0
DWIDTH 9 0
BBX 6 9 1 0
BITMAP
0C
18
30
60
C0
60
30
18
0C
ENDCHAR
STARTCHAR 003D
ENCODING 61
SWIDTH 540 0
DWIDTH 9 0
BBX 6 4 1 2
BITMAP
FC
00
00
FC
ENDCHAR
STARTCHAR 003E
ENCODING 62
SWIDTH 540 0
DWIDTH 9 0
BBX 6 9 1 0
BITMAP
C0
60
30
18
0C
18
30
60
C0
ENDCHAR
STARTCHAR 003F
ENCODING 63
SWIDTH 540 0
DWIDTH 9 0
BBX 7 9 1 0
BITMAP
7C
C6
C6
0C
18
18
00
18
18
ENDCHAR
STARTCHAR 0040
ENCODING 64
SWIDTH 540 0
DWIDTH 9 0
BBX 7 9 1 0
BITMAP
7C
C6
C6
DE
DE
DE
DC
C0
7C
ENDCHAR
STARTCHAR 0041
ENCODING 65
SWIDTH 540 0
DWIDTH 9 0
BBX 7 9 1 0
BITMAP
10
38
6C
C6
C6
FE
C6
C6
C6
ENDCHAR
STARTCHAR 0042
ENCODING 66
SWIDTH 540 0
DWIDTH 9 0
BBX 7 9 1 0
BITMAP
FC
66
66
66
7C
66
66
66
FC
ENDCHAR
STARTCHAR 0043
ENCODING 67
SWIDTH 540 0
DWIDTH 9 0
BBX 7 9 1 0
BITMAP
3C
66
C2
C0
C0
C0
C2
66
3C
ENDCHAR
STARTCHAR 0044
ENCODING 68
SWIDTH 540 0
DWIDTH 9 0
BBX 7 9 1 0
BITMAP
F8
6C
66
66
66
66
66
6C
F8
ENDCHAR
STARTCHAR 0045
ENCODING 69
SWIDTH 540 0
DWIDTH 9 0
BBX 7 9 1 0
BITMAP
FE
66
62
68
78
68
62
66
FE
ENDCHAR
STARTCHAR 0046
ENCODING 70
SWIDTH 540 0
DWIDTH 9 0
BBX 7 9 1 0
BITMAP
FE
66
62
68
78
68
60
60
F0
ENDCHAR
STARTCHAR 0047
ENCODING 71
SWIDTH 540 0
DWIDTH 9 0
BBX 7 9 1 0
BITMAP
3C
66
C2
C0
C0
DE
C6
66
3A
ENDCHAR
STARTCHAR 0048
ENCODING 72
SWIDTH 540 0
DWIDTH 9 0
BBX 7 9 1 0
BITMAP
C6
C6
C6
C6
FE
C6
C6
C6
C6
ENDCHAR
STARTCHAR 0049
ENCODING 73
SWIDTH 540 0
DWIDTH 9 0
BBX 4 9 2 0
BITMAP
F0
60
60
60
60
60
60
60
F0
ENDCHAR
STARTCHAR 004A
ENCODING 74
SWIDTH 540 0
DWIDTH 9 0
BBX 7 9 1 0
BITMAP
1E
0C
0C
0C
0C
0C
CC
CC
78
ENDCHAR
STARTCHAR 004B
ENCODING 75
SWIDTH 540 0
DWIDTH 9 0
BBX 7 9 1 0
BITMAP
E6
66
6C
6C
78
6C
6C
66
E6
ENDCHAR
STARTCHAR 004C
ENCODING 76
SWIDTH 540 0
DWIDTH 9 0
BBX 7 9 1 0
BITMAP
F0
60
60
60
60
60
62
66
FE
ENDCHAR
STARTCHAR 004D
ENCODING 77
SWIDTH 540 0
DWIDTH 9 0
BBX 8 9 0 0
BITMAP
C3
E7
FF
DB
C3
C3
C3
C3
C3
ENDCHAR
STARTCHAR 004E
ENCODING 78
SWIDTH 540 0
DWIDTH 9 0
BBX 7 9 1 0
BITMAP
C6
E6
F6
FE
DE
CE
C6
C6
C6
ENDCHAR
STARTCHAR 004F
ENCODING 79
SWIDTH 540 0
DWIDTH 9 0
BBX 7 9 1 0
BITMAP
38
6C
C6
C6
C6
C6
C6
6C
38
ENDCHAR
STARTCHAR 0050
ENCODING 80
SWIDTH 540 0
DWIDTH 9 0
BBX 7 9 1 0
BITMAP
FC
66
66
66
7C
60
60
60
F0
ENDCHAR
STARTCHAR 0051
ENCODING 81
SWIDTH 540 0
DWIDTH 9 0
BBX 7 10 1 -1
BITMAP
7C
C6
C6
C6
C6
D6
DE
7C
0C
0E
ENDCHAR
STARTCHAR 0052
ENCODING 82
SWIDTH 540 0
DWIDTH 9 0
BBX 7 9 1 0
BITMAP
FC
66
66
66
7C
6C
66
66
E6
ENDCHAR
STARTCHAR 0053
ENCODING 83
SWIDTH 540 0
DWIDTH 9 0
BBX 7 9 1 0
BITMAP
7C
C6
C6
60
38
0C
C6
C6
7C
ENDCHAR
STARTCHAR 0054
ENCODING 84
SWIDTH 540 0
DWIDTH 9 0
BBX 8 9 0 0
BITMAP
FF
DB
99
18
18
18
18
18
3C
ENDCHAR
STARTCHAR 0055
ENCODING 85
SWIDTH 540 0
DWIDTH 9 0
BBX 7 9 1 0
BITMAP
C6
C6
C6
C6
C6
C6
C6
C6
7C
ENDCHAR
STARTCHAR 0056
ENCODING 86
SWIDTH 540 0
DWIDTH 9 0
BBX 8 9 0 0
BITMAP
C3
C3
C3
C3
C3
C3
66
3C
18
ENDCHAR
STARTCHAR 0057
ENCODING 87
SWIDTH 540 0
DWIDTH 9 0
BBX 8 9 0 0
BITMAP
C3
C3
C3
C3
DB
DB
FF
66
66
ENDCHAR
STARTCHAR 0058
ENCODING 88
SWIDTH 540 0
DWIDTH 9 0
BBX 8 9 0 0
BITMAP
C3
C3
66
3C
18
3C
66
C3
C3
ENDCHAR
STARTCHAR 0059
ENCODING 89
SWIDTH 540 0
DWIDTH 9 0
BBX 8 9 0 0
BITMAP
C3
C3
C3
66
3C
18
18
18
3C
ENDCHAR
STARTCHAR 005A
ENCODING 90
SWIDTH 540 0
DWIDTH 9 0
BBX 8 9 0 0
BITMAP
FF
C3
86
0C
18
30
61
C3
FF
ENDCHAR
STARTCHAR 005B
ENCODING 91
SWIDTH 540 0
DWIDTH 9 0
BBX 4 9 2 0
BITMAP
F0
C0
C0
C0
C0
C0
C0
C0
F0
ENDCHAR
STARTCHAR 005C
ENCODING 92
SWIDTH 540 0
DWIDTH 9 0
BBX 7 9 1 0
BITMAP
80
C0
E0
70
38
1C
0E
06
02
ENDCHAR
STARTCHAR 005D
ENCODING 93
SWIDTH 540 0
DWIDTH 9 0
BBX 4 9 2 0
BITMAP
F0
30
30
30
30
30
30
30
F0
ENDCHAR
STARTCHAR 005E
ENCODING 94
SWIDTH 540 0
DWIDTH 9 0
BBX 7 4 1 7
BITMAP
10
38
6C
C6
ENDCHAR
STARTCHAR 005F
ENCODING 95
SWIDTH 540 0
DWIDTH 9 0
BBX 8 1 0 -2
BITMAP
FF
ENDCHAR
STARTCHAR 0060
ENCODING 96
SWIDTH 540 0
DWIDTH 9 0
BBX 3 3 3 8
BITMAP
C0
C0
60
ENDCHAR
STARTCHAR 0061
ENCODING 97
SWIDTH 540 0
DWIDTH 9 0
BBX 7 6 1 0
BITMAP
78
0C
7C
CC
CC
76
ENDCHAR
STARTCHAR 0062
ENCODING 98
SWIDTH 540 0
DWIDTH 9 0
BBX 7 9 1 0
BITMAP
E0
60
60
78
6C
66
66
66
DC
ENDCHAR
STARTCHAR 0063
ENCODING 99
SWIDTH 540 0
DWIDTH 9 0
BBX 7 6 1 0
BITMAP
7C
C6
C0
C0
C6
7C
ENDCHAR
STARTCHAR 0064
ENCODING 100
SWIDTH 540 0
DWIDTH 9 0
BBX 7 9 1 0
BITMAP
1C
0C
0C
3C
6C
CC
CC
CC
76
ENDCHAR
STARTCHAR 0065
ENCODING 101
SWIDTH 540 0
DWIDTH 9 0
BBX 7 6 1 0
BITMAP
7C
C6
FE
C0
C6
7C
ENDCHAR
STARTCHAR 0066
ENCODING 102
SWIDTH 540 0
DWIDTH 9 0
BBX 6 9 1 0
BITMAP
38
6C
64
60
F8
60
60
60
F0
ENDCHAR
STARTCHAR 0067
ENCODING 103
SWIDTH 540 0
DWIDTH 9 0
BBX 7 8 1 -2
BITMAP
76
CC
CC
CC
7C
0C
CC
78
ENDCHAR
STARTCHAR 0068
ENCODING 104
SWIDTH 540 0
DWIDTH 9 0
BBX 7 9 1 0
BITMAP
E0
60
60
6C
76
66
66
66
E6
ENDCHAR
STARTCHAR 0069
ENCODING 105
SWIDTH 540 0
DWIDTH 9 0
BBX 4 9 3 0
BITMAP
60
60
00
E0
60
60
60
60
F0
ENDCHAR
STARTCHAR 006A
ENCODING 106
SWIDTH 540 0
DWIDTH 9 0
BBX 6 11 1 -2
BITMAP
0C
0C
00
1C
0C
0C
0C
0C
CC
CC
78
ENDCHAR
STARTCHAR 006B
ENCODING 107
SWIDTH 540 0
DWIDTH 9 0
BBX 7 9 1 0
BITMAP
E0
60
60
66
6C
78
6C
66
E6
ENDCHAR
STARTCHAR 006C
ENCODING 108
SWIDTH 540 0
DWIDTH 9 0
BBX 4 9 3 0
BITMAP
E0
60
60
60
60
60
60
60
F0
ENDCHAR
STARTCHAR 006D
ENCODING 109
SWIDTH 540 0
DWIDTH 9 0
BBX 8 6 0 0
BITMAP
E6
FF
DB
DB
DB
DB
ENDCHAR
STARTCHAR 006E
ENCODING 110
SWIDTH 540 0
DWIDTH 9 0
BBX 7 6 1 0
BITMAP
DC
66
66
66
66
66
ENDCHAR
STARTCHAR 006F
ENCODING 111
SWIDTH 540 0
DWIDTH 9 0
BBX 7 6 1 0
BITMAP
7C
C6
C6
C6
C6
7C
ENDCHAR
STARTCHAR 0070
ENCODING 112
SWIDTH 540 0
DWIDTH 9 0
BBX 7 8 1 -2
BITMAP
DC
66
66
66
7C
60
60
F0
ENDCHAR
STARTCHAR 0071
ENCODING 113
SWIDTH 540 0
DWIDTH 9 0
BBX 7 8 1 -2
BITMAP
76
CC
CC
CC
7C
0C
0C
1E
ENDCHAR
STARTCHAR 0072
ENCODING 114
SWIDTH 540 0
DWIDTH 9 0
BBX 7 6 1 0
BITMAP
DC
76
66
60
60
F0
ENDCHAR
STARTCHAR 0073
ENCODING 115
SWIDTH 540 0
DWIDTH 9 0
BBX 7 6 1 0
BITMAP
7C
C6
70
1C
C6
7C
ENDCHAR
STARTCHAR 0074
ENCODING 116
SWIDTH 540 0
DWIDTH 9 0
BBX 7 9 1 0
BITMAP
10
30
30
FC
30
30
30
36
1C
ENDCHAR
STARTCHAR 0075
ENCODING 117
SWIDTH 540 0
DWIDTH 9 0
BBX 7 6 1 0
BITMAP
CC
CC
CC
CC
CC
76
ENDCHAR
STARTCHAR 0076
ENCODING 118
SWIDTH 540 0
DWIDTH 9 0
BBX 8 6 0 0
BITMAP
C3
C3
C3
66
3C
18
ENDCHAR
STARTCHAR 0077
ENCODING 119
SWIDTH 540 0
DWIDTH 9 0
BBX 8 6 0 0
BITMAP
C3
C3
DB
DB
FF
66
ENDCHAR
STARTCHAR 0078
ENCODING 120
SWIDTH 540 0
DWIDTH 9 0
BBX 7 6 1 0
BITMAP
C6
6C
38
38
6C
C6
ENDCHAR
STARTCHAR 0079
ENCODING 121
SWIDTH 540 0
DWIDTH 9 0
BBX 7 8 1 -2
BITMAP
C6
C6
C6
C6
7E
06
0C
78
ENDCHAR
STARTCHAR 007A
ENCODING 122
SWIDTH 540 0
DWIDTH 9 0
BBX 7 6 1 0
BITMAP
FE
CC
18
30
66
FE
ENDCHAR
STARTCHAR 007B
ENCODING 123
SWIDTH 540 0
DWIDTH 9 0
BBX 6 9 1 0
BITMAP
1C
30
30
30
E0
30
30
30
1C
ENDCHAR
STARTCHAR 007C
ENCODING 124
SWIDTH 540 0
DWIDTH 9 0
BBX 2 9 3 0
BITMAP
C0
C0
C0
C0
00
C0
C0
C0
C0
ENDCHAR
STARTCHAR 007D
ENCODING 125
SWIDTH 540 0
DWIDTH 9 0
BBX 6 9 1 0
BITMAP
E0
30
30
30
1C
30
30
30
E0
ENDCHAR
STARTCHAR 007E
ENCODING 126
SWIDTH 540 0
DWIDTH 9 0
BBX 7 2 1 7
BITMAP
76
DC
ENDCHAR
STARTCHAR 007F
ENCODING 127
SWIDTH 540 0
DWIDTH 9 0
BBX 7 6 1 1
BITMAP
10
38
6C
C6
C6
FE
ENDCHAR
STARTCHAR 00A0
ENCODING 160
SWIDTH 540 0
DWIDTH 9 0
BBX 0 0 0 0
BITMAP
ENDCHAR
STARTCHAR 00A1
ENCODING 161
SWIDTH 540 0
DWIDTH 9 0
BBX 4 9 2 0
BITMAP
60
60
00
60
60
F0
F0
F0
60
ENDCHAR
STARTCHAR 00A2
ENCODING 162
SWIDTH 540 0
DWIDTH 9 0
BBX 8 10 0 0
BITMAP
18
18
7E
C3
C0
C0
C3
7E
18
18
ENDCHAR
STARTCHAR 00A3
ENCODING 163
SWIDTH 540 0
DWIDTH 9 0
BBX 7 10 1 0
BITMAP
38
6C
64
60
F0
60
60
60
E6
FC
ENDCHAR
STARTCHAR 00A4
ENCODING 164
SWIDTH 540 0
DWIDTH 9 0
BBX 7 8 1 0
BITMAP
C6
6C
7C
C6
C6
7C
6C
C6
ENDCHAR
STARTCHAR 00A5
ENCODING 165
SWIDTH 540 0
DWIDTH 9 0
BBX 8 9 0 0
BITMAP
C3
66
3C
18
FF
18
FF
18
18
ENDCHAR
STARTCHAR 00A6
ENCODING 166
SWIDTH 540 0
DWIDTH 9 0
BBX 2 9 3 0
BITMAP
C0
C0
C0
C0
00
C0
C0
C0
C0
ENDCHAR
STARTCHAR 00A7
ENCODING 167
SWIDTH 540 0
DWIDTH 9 0
BBX 7 12 1 -2
BITMAP
7C
C6
60
38
6C
C6
C6
6C
38
0C
C6
7C
ENDCHAR
STARTCHAR 00A8
ENCODING 168
SWIDTH 540 0
DWIDTH 9 0
BBX 6 2 1 9
BITMAP
CC
CC
ENDCHAR
STARTCHAR 00A9
ENCODING 169
SWIDTH 540 0
DWIDTH 9 0
BBX 8 9 0 0
BITMAP
3C
42
99
A5
A1
A5
99
42
3C
ENDCHAR
STARTCHAR 00AA
ENCODING 170
SWIDTH 540 0
DWIDTH 9 0
BBX 6 6 1 4
BITMAP
78
D8
D8
7C
00
FC
ENDCHAR
STARTCHAR 00AB
ENCODING 171
SWIDTH 540 0
DWIDTH 9 0
BBX 7 5 1 2
BITMAP
36
6C
D8
6C
36
ENDCHAR
STARTCHAR 00AC
ENCODING 172
SWIDTH 540 0
DWIDTH 9 0
BBX 7 4 1 1
BITMAP
FE
06
06
06
ENDCHAR
STARTCHAR 00AD
ENCODING 173
SWIDTH 540 0
DWIDTH 9 0
BBX 8 1 0 4
BITMAP
FF
ENDCHAR
STARTCHAR 00AE
ENCODING 174
SWIDTH 540 0
DWIDTH 9 0
BBX 8 9 0 0
BITMAP
3C
42
B9
A5
B9
A9
A5
42
3C
ENDCHAR
STARTCHAR 00AF
ENCODING 175
SWIDTH 540 0
DWIDTH 9 0
BBX 8 1 0 10
BITMAP
FF
ENDCHAR
STARTCHAR 00B0
ENCODING 176
SWIDTH 540 0
DWIDTH 9 0
BBX 5 4 1 6
BITMAP
70
D8
D8
70
ENDCHAR
STARTCHAR 00B1
ENCODING 177
SWIDTH 540 0
DWIDTH 9 0
BBX 8 9 0 0
BITMAP
18
18
18
FF
18
18
18
00
FF
ENDCHAR
STARTCHAR 00B2
ENCODING 178
SWIDTH 540 0
DWIDTH 9 0
BBX 5 6 0 4
BITMAP
70
D8
30
60
C8
F8
ENDCHAR
STARTCHAR 00B3
ENCODING 179
SWIDTH 540 0
DWIDTH 9 0
BBX 6 6 0 4
BITMAP
FC
18
30
18
CC
78
ENDCHAR
STARTCHAR 00B4
ENCODING 180
SWIDTH 540 0
DWIDTH 9 0
BBX 4 3 2 8
BITMAP
30
60
C0
ENDCHAR
STARTCHAR 00B5
ENCODING 181
SWIDTH 540 0
DWIDTH 9 0
BBX 7 8 1 -1
BITMAP
66
66
66
66
7C
60
60
C0
ENDCHAR
STARTCHAR 00B6
ENCODING 182
SWIDTH 540 0
DWIDTH 9 0
BBX 8 9 0 0
BITMAP
7F
DB
DB
DB
7B
1B
1B
1B
1B
ENDCHAR
STARTCHAR 00B7
ENCODING 183
SWIDTH 540 0
DWIDTH 9 0
BBX 2 1 3 3
BITMAP
C0
ENDCHAR
STARTCHAR 00B8
ENCODING 184
SWIDTH 540 0
DWIDTH 9 0
BBX 5 3 2 -2
BITMAP
30
18
F0
ENDCHAR
STARTCHAR 00B9
ENCODING 185
SWIDTH 540 0
DWIDTH 9 0
BBX 4 6 1 4
BITMAP
60
E0
60
60
60
F0
ENDCHAR
STARTCHAR 00BA
ENCODING 186
SWIDTH 540 0
DWIDTH 9 0
BBX 5 6 1 4
BITMAP
70
D8
D8
70
00
F8
ENDCHAR
STARTCHAR 00BB
ENCODING 187
SWIDTH 540 0
DWIDTH 9 0
BBX 7 5 1 2
BITMAP
D8
6C
36
6C
D8
ENDCHAR
STARTCHAR 00BC
ENCODING 188
SWIDTH 540 0
DWIDTH 9 0
BBX 8 12 0 -2
BITMAP
60
E0
63
66
6C
18
33
67
CF
1F
03
03
ENDCHAR
STARTCHAR 00BD
ENCODING 189
SWIDTH 540 0
DWIDTH 9 0
BBX 8 12 0 -2
BITMAP
60
E0
63
66
6C
18
30
6E
C3
06
0C
1F
ENDCHAR
STARTCHAR 00BE
ENCODING 190
SWIDTH 540 0
DWIDTH 9 0
BBX 8 12 0 -2
BITMAP
F0
30
63
36
EC
18
33
67
CF
1F
03
03
ENDCHAR
STARTCHAR 00BF
ENCODING 191
SWIDTH 540 0
DWIDTH 9 0
BBX 7 9 1 0
BITMAP
30
30
00
30
30
60
C6
C6
7C
ENDCHAR
STARTCHAR 00C0
ENCODING 192
SWIDTH 540 0
DWIDTH 9 0
BBX 7 11 1 0
BITMAP
30
18
0C
00
38
6C
C6
C6
FE
C6
C6
ENDCHAR
STARTCHAR 00C1
ENCODING 193
SWIDTH 540 0
DWIDTH 9 0
BBX 7 11 1 0
BITMAP
18
30
60
00
38
6C
C6
C6
FE
C6
C6
ENDCHAR
STARTCHAR 00C2
ENCODING 194
SWIDTH 540 0
DWIDTH 9 0
BBX 7 11 1 0
BITMAP
10
38
6C
00
38
6C
C6
C6
FE
C6
C6
ENDCHAR
STARTCHAR 00C3
ENCODING 195
SWIDTH 540 0
DWIDTH 9 0
BBX 7 11 1 0
BITMAP
76
DC
00
10
38
6C
C6
C6
FE
C6
C6
ENDCHAR
STARTCHAR 00C4
ENCODING 196
SWIDTH 540 0
DWIDTH 9 0
BBX 7 10 1 0
BITMAP
C6
C6
10
38
6C
C6
C6
FE
C6
C6
ENDCHAR
STARTCHAR 00C5
ENCODING 197
SWIDTH 540 0
DWIDTH 9 0
BBX 7 11 1 0
BITMAP
38
6C
38
00
38
6C
C6
C6
FE
C6
C6
ENDCHAR
STARTCHAR 00C6
ENCODING 198
SWIDTH 540 0
DWIDTH 9 0
BBX 7 9 1 0
BITMAP
3E
6C
CC
CC
FE
CC
CC
CC
CE
ENDCHAR
STARTCHAR 00C7
ENCODING 199
SWIDTH 540 0
DWIDTH 9 0
BBX 7 11 1 -2
BITMAP
3C
66
C2
C0
C0
C2
66
3C
0C
06
7C
ENDCHAR
STARTCHAR 00C8
ENCODING 200
SWIDTH 540 0
DWIDTH 9 0
BBX 7 11 1 0
BITMAP
30
18
0C
00
FE
66
60
7C
60
66
FE
ENDCHAR
STARTCHAR 00C9
ENCODING 201
SWIDTH 540 0
DWIDTH 9 0
BBX 7 11 1 0
BITMAP
18
30
60
00
FE
66
60
7C
60
66
FE
ENDCHAR
STARTCHAR 00CA
ENCODING 202
SWIDTH 540 0
DWIDTH 9 0
BBX 7 11 1 0
BITMAP
10
38
6C
00
FE
66
60
7C
60
66
FE
ENDCHAR
STARTCHAR 00CB
ENCODING 203
SWIDTH 540 0
DWIDTH 9 0
BBX 7 10 1 0
BITMAP
C6
C6
00
FE
66
60
7C
60
66
FE
ENDCHAR
STARTCHAR 00CC
ENCODING 204
SWIDTH 540 0
DWIDTH 9 0
BBX 4 11 2 0
BITMAP
C0
60
30
00
F0
60
60
60
60
60
F0
ENDCHAR
STARTCHAR 00CD
ENCODING 205
SWIDTH 540 0
DWIDTH 9 0
BBX 4 11 2 0
BITMAP
30
60
C0
00
F0
60
60
60
60
60
F0
ENDCHAR
STARTCHAR 00CE
ENCODING 206
SWIDTH 540 0
DWIDTH 9 0
BBX 6 11 1 0
BITMAP
30
78
CC
00
78
30
30
30
30
30
78
ENDCHAR
STARTCHAR 00CF
ENCODING 207
SWIDTH 540 0
DWIDTH 9 0
BBX 6 11 1 0
BITMAP
CC
CC
00
78
30
30
30
30
30
30
78
ENDCHAR
STARTCHAR 00D0
ENCODING 208
SWIDTH 540 0
DWIDTH 9 0
BBX 7 9 1 0
BITMAP
F8
6C
66
66
F6
66
66
6C
F8
ENDCHAR
STARTCHAR 00D1
ENCODING 209
SWIDTH 540 0
DWIDTH 9 0
BBX 7 11 1 0
BITMAP
76
DC
00
C6
E6
F6
FE
DE
CE
C6
C6
ENDCHAR
STARTCHAR 00D2
ENCODING 210
SWIDTH 540 0
DWIDTH 9 0
BBX 7 11 1 0
BITMAP
30
18
0C
00
38
6C
C6
C6
C6
6C
38
ENDCHAR
STARTCHAR 00D3
ENCODING 211
SWIDTH 540 0
DWIDTH 9 0
BBX 7 11 1 0
BITMAP
18
30
60
00
38
6C
C6
C6
C6
6C
38
ENDCHAR
STARTCHAR 00D4
ENCODING 212
SWIDTH 540 0
DWIDTH 9 0
BBX 7 11 1 0
BITMAP
10
38
6C
00
38
6C
C6
C6
C6
6C
38
ENDCHAR
STARTCHAR 00D5
ENCODING 213
SWIDTH 540 0
DWIDTH 9 0
BBX 7 11 1 0
BITMAP
76
DC
00
38
6C
C6
C6
C6
C6
6C
38
ENDCHAR
STARTCHAR 00D6
ENCODING 214
SWIDTH 540 0
DWIDTH 9 0
BBX 7 10 1 0
BITMAP
C6
C6
38
6C
C6
C6
C6
C6
6C
38
ENDCHAR
STARTCHAR 00D7
ENCODING 215
SWIDTH 540 0
DWIDTH 9 0
BBX 7 6 1 1
BITMAP
C6
6C
38
38
6C
C6
ENDCHAR
STARTCHAR 00D8
ENCODING 216
SWIDTH 540 0
DWIDTH 9 0
BBX 8 9 0 0
BITMAP
3D
63
C3
CF
DB
F3
C3
C6
BC
ENDCHAR
STARTCHAR 00D9
ENCODING 217
SWIDTH 540 0
DWIDTH 9 0
BBX 7 11 1 0
BITMAP
60
30
18
00
C6
C6
C6
C6
C6
C6
7C
ENDCHAR
STARTCHAR 00DA
ENCODING 218
SWIDTH 540 0
DWIDTH 9 0
BBX 7 11 1 0
BITMAP
0C
18
30
00
C6
C6
C6
C6
C6
C6
7C
ENDCHAR
STARTCHAR 00DB
ENCODING 219
SWIDTH 540 0
DWIDTH 9 0
BBX 7 11 1 0
BITMAP
10
38
6C
00
C6
C6
C6
C6
C6
C6
7C
ENDCHAR
STARTCHAR 00DC
ENCODING 220
SWIDTH 540 0
DWIDTH 9 0
BBX 7 10 1 0
BITMAP
C6
C6
00
C6
C6
C6
C6
C6
C6
7C
ENDCHAR
STARTCHAR 00DD
ENCODING 221
SWIDTH 540 0
DWIDTH 9 0
BBX 8 11 0 0
BITMAP
06
0C
18
C3
C3
66
3C
18
18
18
3C
ENDCHAR
STARTCHAR 00DE
ENCODING 222
SWIDTH 540 0
DWIDTH 9 0
BBX 7 9 1 0
BITMAP
F0
60
7C
66
66
66
7C
60
F0
ENDCHAR
STARTCHAR 00DF
ENCODING 223
SWIDTH 540 0
DWIDTH 9 0
BBX 7 9 1 0
BITMAP
78
CC
CC
CC
D8
CC
C6
C6
CC
ENDCHAR
STARTCHAR 00E0
ENCODING 224
SWIDTH 540 0
DWIDTH 9 0
BBX 7 10 1 0
BITMAP
60
30
18
00
78
0C
7C
CC
CC
76
ENDCHAR
STARTCHAR 00E1
ENCODING 225
SWIDTH 540 0
DWIDTH 9 0
BBX 7 10 1 0
BITMAP
18
30
60
00
78
0C
7C
CC
CC
76
ENDCHAR
STARTCHAR 00E2
ENCODING 226
SWIDTH 540 0
DWIDTH 9 0
BBX 7 10 1 0
BITMAP
10
38
6C
00
78
0C
7C
CC
CC
76
ENDCHAR
STARTCHAR 00E3
ENCODING 227
SWIDTH 540 0
DWIDTH 9 0
BBX 7 9 1 0
BITMAP
76
DC
00
78
0C
7C
CC
CC
76
ENDCHAR
STARTCHAR 00E4
ENCODING 228
SWIDTH 540 0
DWIDTH 9 0
BBX 7 9 1 0
BITMAP
CC
CC
00
78
0C
7C
CC
CC
76
ENDCHAR
STARTCHAR 00E5
ENCODING 229
SWIDTH 540 0
DWIDTH 9 0
BBX 7 10 1 0
BITMAP
38
6C
38
00
78
0C
7C
CC
CC
76
ENDCHAR
STARTCHAR 00E6
ENCODING 230
SWIDTH 540 0
DWIDTH 9 0
BBX 8 7 0 0
BITMAP
6E
3B
1B
7E
D8
DC
77
ENDCHAR
STARTCHAR 00E7
ENCODING 231
SWIDTH 540 0
DWIDTH 9 0
BBX 6 8 1 -1
BITMAP
78
CC
C0
CC
78
18
0C
78
ENDCHAR
STARTCHAR 00E8
ENCODING 232
SWIDTH 540 0
DWIDTH 9 0
BBX 7 10 1 0
BITMAP
60
30
18
00
7C
C6
FE
C0
C6
7C
ENDCHAR
STARTCHAR 00E9
ENCODING 233
SWIDTH 540 0
DWIDTH 9 0
BBX 7 10 1 0
BITMAP
0C
18
30
00
7C
C6
FE
C0
C6
7C
ENDCHAR
STARTCHAR 00EA
ENCODING 234
SWIDTH 540 0
DWIDTH 9 0
BBX 7 10 1 0
BITMAP
10
38
6C
00
7C
C6
FE
C0
C6
7C
ENDCHAR
STARTCHAR 00EB
ENCODING 235
SWIDTH 540 0
DWIDTH 9 0
BBX 7 9 1 0
BITMAP
CC
CC
00
7C
C6
FE
C0
C6
7C
ENDCHAR
STARTCHAR 00EC
ENCODING 236
SWIDTH 540 0
DWIDTH 9 0
BBX 5 10 1 0
BITMAP
C0
60
30
00
70
30
30
30
30
78
ENDCHAR
STARTCHAR 00ED
ENCODING 237
SWIDTH 540 0
DWIDTH 9 0
BBX 4 10 2 0
BITMAP
30
60
C0
00
E0
60
60
60
60
F0
ENDCHAR
STARTCHAR 00EE
ENCODING 238
SWIDTH 540 0
DWIDTH 9 0
BBX 6 10 1 0
BITMAP
30
78
CC
00
70
30
30
30
30
78
ENDCHAR
STARTCHAR 00EF
ENCODING 239
SWIDTH 540 0
DWIDTH 9 0
BBX 6 9 1 0
BITMAP
CC
CC
00
70
30
30
30
30
78
ENDCHAR
STARTCHAR 00F0
ENCODING 240
SWIDTH 540 0
DWIDTH 9 0
BBX 6 9 1 0
BITMAP
68
30
58
0C
7C
CC
CC
CC
78
ENDCHAR
STARTCHAR 00F1
ENCODING 241
SWIDTH 540 0
DWIDTH 9 0
BBX 7 9 1 0
BITMAP
76
DC
00
DC
66
66
66
66
66
ENDCHAR
STARTCHAR 00F2
ENCODING 242
SWIDTH 540 0
DWIDTH 9 0
BBX 7 10 1 0
BITMAP
60
30
18
00
7C
C6
C6
C6
C6
7C
ENDCHAR
STARTCHAR 00F3
ENCODING 243
SWIDTH 540 0
DWIDTH 9 0
BBX 7 10 1 0
BITMAP
18
30
60
00
7C
C6
C6
C6
C6
7C
ENDCHAR
STARTCHAR 00F4
ENCODING 244
SWIDTH 540 0
DWIDTH 9 0
BBX 7 10 1 0
BITMAP
10
38
6C
00
7C
C6
C6
C6
C6
7C
ENDCHAR
STARTCHAR 00F5
ENCODING 245
SWIDTH 540 0
DWIDTH 9 0
BBX 7 9 1 0
BITMAP
76
DC
00
7C
C6
C6
C6
C6
7C
ENDCHAR
STARTCHAR 00F6
ENCODING 246
SWIDTH 540 0
DWIDTH 9 0
BBX 7 9 1 0
BITMAP
C6
C6
00
7C
C6
C6
C6
C6
7C
ENDCHAR
STARTCHAR 00F7
ENCODING 247
SWIDTH 540 0
DWIDTH 9 0
BBX 8 9 0 0
BITMAP
18
18
00
00
FF
00
00
18
18
ENDCHAR
STARTCHAR 00F8
ENCODING 248
SWIDTH 540 0
DWIDTH 9 0
BBX 8 8 0 -1
BITMAP
01
7E
C7
CB
D3
E3
7E
80
ENDCHAR
STARTCHAR 00F9
ENCODING 249
SWIDTH 540 0
DWIDTH 9 0
BBX 7 10 1 0
BITMAP
60
30
18
00
CC
CC
CC
CC
CC
76
ENDCHAR
STARTCHAR 00FA
ENCODING 250
SWIDTH 540 0
DWIDTH 9 0
BBX 7 10 1 0
BITMAP
18
30
60
00
CC
CC
CC
CC
CC
76
ENDCHAR
STARTCHAR 00FB
ENCODING 251
SWIDTH 540 0
DWIDTH 9 0
BBX 7 10 1 0
BITMAP
30
78
CC
00
CC
CC
CC
CC
CC
76
ENDCHAR
STARTCHAR 00FC
ENCODING 252
SWIDTH 540 0
DWIDTH 9 0
BBX 7 9 1 0
BITMAP
CC
CC
00
CC
CC
CC
CC
CC
76
ENDCHAR
STARTCHAR 00FD
ENCODING 253
SWIDTH 540 0
DWIDTH 9 0
BBX 7 12 1 -2
BITMAP
0C
18
30
00
C6
C6
C6
C6
7E
06
0C
F8
ENDCHAR
STARTCHAR 00FE
ENCODING 254
SWIDTH 540 0
DWIDTH 9 0
BBX 7 11 1 -2
BITMAP
E0
60
60
7C
66
66
66
66
7C
60
F0
ENDCHAR
STARTCHAR 00FF
ENCODING 255
SWIDTH 540 0
DWIDTH 9 0
BBX 7 11 1 -2
BITMAP
C6
C6
00
C6
C6
C6
C6
7E
06
0C
78
ENDCHAR
STARTCHAR 0100
ENCODING 256
SWIDTH 540 0
DWIDTH 9 0
BBX 7 11 1 0
BITMAP
7C
00
10
38
6C
C6
C6
FE
C6
C6
C6
ENDCHAR
STARTCHAR 0101
ENCODING 257
SWIDTH 540 0
DWIDTH 9 0
BBX 7 8 1 0
BITMAP
7C
00
78
0C
7C
CC
CC
76
ENDCHAR
STARTCHAR 0102
ENCODING 258
SWIDTH 540 0
DWIDTH 9 0
BBX 7 11 1 0
BITMAP
C6
7C
00
10
38
6C
C6
C6
FE
C6
C6
ENDCHAR
STARTCHAR 0103
ENCODING 259
SWIDTH 540 0
DWIDTH 9 0
BBX 7 9 1 0
BITMAP
C6
7C
00
78
0C
7C
CC
CC
76
ENDCHAR
STARTCHAR 0104
ENCODING 260
SWIDTH 540 0
DWIDTH 9 0
BBX 7 11 1 -2
BITMAP
10
38
6C
C6
C6
FE
C6
C6
C6
18
0E
ENDCHAR
STARTCHAR 0105
ENCODING 261
SWIDTH 540 0
DWIDTH 9 0
BBX 7 8 1 -2
BITMAP
78
0C
7C
CC
CC
76
18
0E
ENDCHAR
STARTCHAR 0106
ENCODING 262
SWIDTH 540 0
DWIDTH 9 0
BBX 7 11 1 0
BITMAP
06
0C
18
00
3C
66
C0
C0
C0
66
3C
ENDCHAR
STARTCHAR 0107
ENCODING 263
SWIDTH 540 0
DWIDTH 9 0
BBX 7 10 1 0
BITMAP
06
0C
18
00
7C
C6
C0
C0
C6
7C
ENDCHAR
STARTCHAR 0108
ENCODING 264
SWIDTH 540 0
DWIDTH 9 0
BBX 7 11 1 0
BITMAP
08
1C
36
00
3C
66
C0
C0
C0
66
3C
ENDCHAR
STARTCHAR 0109
ENCODING 265
SWIDTH 540 0
DWIDTH 9 0
BBX 7 10 1 0
BITMAP
10
38
6C
00
7C
C6
C0
C0
C6
7C
ENDCHAR
STARTCHAR 010A
ENCODING 266
SWIDTH 540 0
DWIDTH 9 0
BBX 7 11 1 0
BITMAP
18
18
00
3C
66
C2
C0
C0
C2
66
3C
ENDCHAR
STARTCHAR 010B
ENCODING 267
SWIDTH 540 0
DWIDTH 9 0
BBX 7 9 1 0
BITMAP
18
18
00
7C
C6
C0
C0
C6
7C
ENDCHAR
STARTCHAR 010C
ENCODING 268
SWIDTH 540 0
DWIDTH 9 0
BBX 7 11 1 0
BITMAP
36
1C
08
00
3C
66
C0
C0
C0
66
3C
ENDCHAR
STARTCHAR 010D
ENCODING 269
SWIDTH 540 0
DWIDTH 9 0
BBX 7 10 1 0
BITMAP
6C
38
10
00
7C
C6
C0
C0
C6
7C
ENDCHAR
STARTCHAR 010E
ENCODING 270
SWIDTH 540 0
DWIDTH 9 0
BBX 7 11 1 0
BITMAP
6C
38
10
00
F8
6C
66
66
66
6C
F8
ENDCHAR
STARTCHAR 010F
ENCODING 271
SWIDTH 540 0
DWIDTH 9 0
BBX 8 11 0 0
BITMAP
03
03
1E
0C
0C
3C
6C
CC
CC
CC
76
ENDCHAR
STARTCHAR 0110
ENCODING 272
SWIDTH 540 0
DWIDTH 9 0
BBX 7 9 1 0
BITMAP
F8
6C
66
66
F6
66
66
6C
F8
ENDCHAR
STARTCHAR 0111
ENCODING 273
SWIDTH 540 0
DWIDTH 9 0
BBX 7 9 1 0
BITMAP
0C
7E
0C
3C
6C
CC
CC
CC
76
ENDCHAR
STARTCHAR 0112
ENCODING 274
SWIDTH 540 0
DWIDTH 9 0
BBX 7 11 1 0
BITMAP
7C
00
FE
66
62
68
78
68
62
66
FE
ENDCHAR
STARTCHAR 0113
ENCODING 275
SWIDTH 540 0
DWIDTH 9 0
BBX 7 8 1 0
BITMAP
7C
00
7C
C6
FE
C0
C6
7C
ENDCHAR
STARTCHAR 0114
ENCODING 276
SWIDTH 540 0
DWIDTH 9 0
BBX 7 10 1 0
BITMAP
C6
7C
00
FE
66
60
7C
60
66
FE
ENDCHAR
STARTCHAR 0115
ENCODING 277
SWIDTH 540 0
DWIDTH 9 0
BBX 7 9 1 0
BITMAP
C6
7C
00
7C
C6
FE
C0
C6
7C
ENDCHAR
STARTCHAR 0116
ENCODING 278
SWIDTH 540 0
DWIDTH 9 0
BBX 7 10 1 0
BITMAP
18
18
00
FE
66
60
7C
60
66
FE
ENDCHAR
STARTCHAR 0117
ENCODING 279
SWIDTH 540 0
DWIDTH 9 0
BBX 7 9 1 0
BITMAP
18
18
00
7C
C6
FE
C0
C6
7C
ENDCHAR
STARTCHAR 0118
ENCODING 280
SWIDTH 540 0
DWIDTH 9 0
BBX 7 11 1 -2
BITMAP
FE
66
62
68
78
68
62
66
FE
18
0E
ENDCHAR
STARTCHAR 0119
ENCODING 281
SWIDTH 540 0
DWIDTH 9 0
BBX 7 8 1 -2
BITMAP
7C
C6
FE
C0
C6
7C
18
0E
ENDCHAR
STARTCHAR 011A
ENCODING 282
SWIDTH 540 0
DWIDTH 9 0
BBX 7 11 1 0
BITMAP
6C
38
10
00
FE
66
60
7C
60
66
FE
ENDCHAR
STARTCHAR 011B
ENCODING 283
SWIDTH 540 0
DWIDTH 9 0
BBX 7 10 1 0
BITMAP
6C
38
10
00
7C
C6
FE
C0
C6
7C
ENDCHAR
STARTCHAR 011C
ENCODING 284
SWIDTH 540 0
DWIDTH 9 0
BBX 7 11 1 0
BITMAP
08
1C
36
00
3C
66
C0
C0
CE
66
3A
ENDCHAR
STARTCHAR 011D
ENCODING 285
SWIDTH 540 0
DWIDTH 9 0
BBX 7 12 1 -2
BITMAP
10
38
6C
00
76
CC
CC
CC
7C
0C
CC
78
ENDCHAR
STARTCHAR 011E
ENCODING 286
SWIDTH 540 0
DWIDTH 9 0
BBX 7 11 1 0
BITMAP
C6
7C
00
3C
66
C2
C0
DE
C6
66
3A
ENDCHAR
STARTCHAR 011F
ENCODING 287
SWIDTH 540 0
DWIDTH 9 0
BBX 7 11 1 -2
BITMAP
C6
7C
00
76
CC
CC
CC
7C
0C
CC
78
ENDCHAR
STARTCHAR 0120
ENCODING 288
SWIDTH 540 0
DWIDTH 9 0
BBX 7 11 1 0
BITMAP
18
18
00
3C
66
C2
C0
DE
C6
66
3A
ENDCHAR
STARTCHAR 0121
ENCODING 289
SWIDTH 540 0
DWIDTH 9 0
BBX 7 11 1 -2
BITMAP
18
18
00
76
CC
CC
CC
7C
0C
CC
78
ENDCHAR
STARTCHAR 0122
ENCODING 290
SWIDTH 540 0
DWIDTH 9 0
BBX 7 11 1 -2
BITMAP
3C
66
C2
C0
C0
DE
C6
66
3A
18
70
ENDCHAR
STARTCHAR 0123
ENCODING 291
SWIDTH 540 0
DWIDTH 9 0
BBX 7 11 1 -2
BITMAP
1C
30
00
76
CC
CC
CC
7C
0C
CC
78
ENDCHAR
STARTCHAR 0124
ENCODING 292
SWIDTH 540 0
DWIDTH 9 0
BBX 7 11 1 0
BITMAP
10
38
6C
00
C6
C6
C6
FE
C6
C6
C6
ENDCHAR
STARTCHAR 0125
ENCODING 293
SWIDTH 540 0
DWIDTH 9 0
BBX 7 11 1 0
BITMAP
08
1C
36
00
E0
60
6C
76
66
66
E6
ENDCHAR
STARTCHAR 0126
ENCODING 294
SWIDTH 540 0
DWIDTH 9 0
BBX 8 9 0 0
BITMAP
66
66
FF
66
7E
66
66
66
66
ENDCHAR
STARTCHAR 0127
ENCODING 295
SWIDTH 540 0
DWIDTH 9 0
BBX 7 9 1 0
BITMAP
E0
60
F0
6C
76
66
66
66
E6
ENDCHAR
STARTCHAR 0128
ENCODING 296
SWIDTH 540 0
DWIDTH 9 0
BBX 7 11 1 0
BITMAP
76
DC
00
78
30
30
30
30
30
30
78
ENDCHAR
STARTCHAR 0129
ENCODING 297
SWIDTH 540 0
DWIDTH 9 0
BBX 7 9 1 0
BITMAP
76
DC
00
70
30
30
30
30
78
ENDCHAR
STARTCHAR 012A
ENCODING 298
SWIDTH 540 0
DWIDTH 9 0
BBX 6 10 1 0
BITMAP
FC
00
78
30
30
30
30
30
30
78
ENDCHAR
STARTCHAR 012B
ENCODING 299
SWIDTH 540 0
DWIDTH 9 0
BBX 5 8 1 0
BITMAP
F8
00
70
30
30
30
30
78
ENDCHAR
STARTCHAR 012C
ENCODING 300
SWIDTH 540 0
DWIDTH 9 0
BBX 6 11 1 0
BITMAP
CC
78
00
78
30
30
30
30
30
30
78
ENDCHAR
STARTCHAR 012D
ENCODING 301
SWIDTH 540 0
DWIDTH 9 0
BBX 6 9 1 0
BITMAP
CC
78
00
70
30
30
30
30
78
ENDCHAR
STARTCHAR 012E
ENCODING 302
SWIDTH 540 0
DWIDTH 9 0
BBX 5 11 2 -2
BITMAP
F0
60
60
60
60
60
60
60
F0
60
38
ENDCHAR
STARTCHAR 012F
ENCODING 303
SWIDTH 540 0
DWIDTH 9 0
BBX 5 11 2 -2
BITMAP
60
60
00
E0
60
60
60
60
F0
60
38
ENDCHAR
STARTCHAR 0130
ENCODING 304
SWIDTH 540 0
DWIDTH 9 0
BBX 4 11 2 0
BITMAP
60
60
00
F0
60
60
60
60
60
60
F0
ENDCHAR
STARTCHAR 0131
ENCODING 305
SWIDTH 540 0
DWIDTH 9 0
BBX 4 6 2 0
BITMAP
E0
60
60
60
60
F0
ENDCHAR
STARTCHAR 0132
ENCODING 306
SWIDTH 540 0
DWIDTH 9 0
BBX 8 9 0 0
BITMAP
C7
C3
C3
C3
C3
C3
DB
DB
CE
ENDCHAR
STARTCHAR 0133
ENCODING 307
SWIDTH 540 0
DWIDTH 9 0
BBX 8 11 0 -2
BITMAP
C3
C3
00
C7
C3
C3
C3
C3
DB
1B
0E
ENDCHAR
STARTCHAR 0134
ENCODING 308
SWIDTH 540 0
DWIDTH 9 0
BBX 7 11 1 0
BITMAP
08
1C
36
00
1E
0C
0C
0C
CC
CC
78
ENDCHAR
STARTCHAR 0135
ENCODING 309
SWIDTH 540 0
DWIDTH 9 0
BBX 7 12 1 -2
BITMAP
08
1C
36
00
1C
0C
0C
0C
0C
CC
CC
78
ENDCHAR
STARTCHAR 0136
ENCODING 310
SWIDTH 540 0
DWIDTH 9 0
BBX 7 11 1 -2
BITMAP
E6
66
6C
6C
78
6C
6C
66
E6
18
70
ENDCHAR
STARTCHAR 0137
ENCODING 311
SWIDTH 540 0
DWIDTH 9 0
BBX 7 11 1 -2
BITMAP
E0
60
60
66
6C
78
6C
66
E6
18
70
ENDCHAR
STARTCHAR 0138
ENCODING 312
SWIDTH 540 0
DWIDTH 9 0
BBX 7 6 1 0
BITMAP
E6
6C
78
6C
66
E6
ENDCHAR
STARTCHAR 0139
ENCODING 313
SWIDTH 540 0
DWIDTH 9 0
BBX 7 11 1 0
BITMAP
30
60
C0
00
F0
60
60
60
62
66
FE
ENDCHAR
STARTCHAR 013A
ENCODING 314
SWIDTH 540 0
DWIDTH 9 0
BBX 8 11 0 0
BITMAP
03
06
EC
60
60
60
60
60
60
60
F0
ENDCHAR
STARTCHAR 013B
ENCODING 315
SWIDTH 540 0
DWIDTH 9 0
BBX 7 11 1 -2
BITMAP
F0
60
60
60
60
60
62
66
FE
18
70
ENDCHAR
STARTCHAR 013C
ENCODING 316
SWIDTH 540 0
DWIDTH 9 0
BBX 4 11 2 -2
BITMAP
E0
60
60
60
60
60
60
60
F0
30
E0
ENDCHAR
STARTCHAR 013D
ENCODING 317
SWIDTH 540 0
DWIDTH 9 0
BBX 7 9 1 0
BITMAP
F6
66
64
60
60
60
62
66
FE
ENDCHAR
STARTCHAR 013E
ENCODING 318
SWIDTH 540 0
DWIDTH 9 0
BBX 7 9 1 0
BITMAP
E6
66
64
60
60
60
60
60
F0
ENDCHAR
STARTCHAR 013F
ENCODING 319
SWIDTH 540 0
DWIDTH 9 0
BBX 7 9 1 0
BITMAP
F0
60
60
66
66
60
62
66
FE
ENDCHAR
STARTCHAR 0140
ENCODING 320
SWIDTH 540 0
DWIDTH 9 0
BBX 6 9 2 0
BITMAP
E0
60
60
6C
6C
60
60
60
F0
ENDCHAR
STARTCHAR 0141
ENCODING 321
SWIDTH 540 0
DWIDTH 9 0
BBX 8 9 0 0
BITMAP
78
30
36
3C
38
70
F1
33
7F
ENDCHAR
STARTCHAR 0142
ENCODING 322
SWIDTH 540 0
DWIDTH 9 0
BBX 6 9 1 0
BITMAP
70
34
3C
38
30
70
F0
30
78
ENDCHAR
STARTCHAR 0143
ENCODING 323
SWIDTH 540 0
DWIDTH 9 0
BBX 7 11 1 0
BITMAP
0C
18
30
00
C6
E6
F6
DE
CE
C6
C6
ENDCHAR
STARTCHAR 0144
ENCODING 324
SWIDTH 540 0
DWIDTH 9 0
BBX 7 10 1 0
BITMAP
06
0C
18
00
DC
66
66
66
66
66
ENDCHAR
STARTCHAR 0145
ENCODING 325
SWIDTH 540 0
DWIDTH 9 0
BBX 7 11 1 -2
BITMAP
C6
E6
F6
FE
DE
CE
C6
C6
C6
18
70
ENDCHAR
STARTCHAR 0146
ENCODING 326
SWIDTH 540 0
DWIDTH 9 0
BBX 7 8 1 -2
BITMAP
DC
66
66
66
66
66
18
70
ENDCHAR
STARTCHAR 0147
ENCODING 327
SWIDTH 540 0
DWIDTH 9 0
BBX 7 11 1 0
BITMAP
6C
38
10
00
C6
E6
F6
DE
CE
C6
C6
ENDCHAR
STARTCHAR 0148
ENCODING 328
SWIDTH 540 0
DWIDTH 9 0
BBX 7 10 1 0
BITMAP
6C
38
10
00
DC
66
66
66
66
66
ENDCHAR
STARTCHAR 0149
ENCODING 329
SWIDTH 540 0
DWIDTH 9 0
BBX 7 10 1 0
BITMAP
60
60
C0
00
DC
66
66
66
66
66
ENDCHAR
STARTCHAR 014A
ENCODING 330
SWIDTH 540 0
DWIDTH 9 0
BBX 7 11 1 -2
BITMAP
C6
E6
F6
FE
DE
CE
C6
C6
C6
06
1C
ENDCHAR
STARTCHAR 014B
ENCODING 331
SWIDTH 540 0
DWIDTH 9 0
BBX 7 8 1 -2
BITMAP
DC
66
66
66
66
66
06
1C
ENDCHAR
STARTCHAR 014C
ENCODING 332
SWIDTH 540 0
DWIDTH 9 0
BBX 7 11 1 0
BITMAP
7C
00
38
6C
C6
C6
C6
C6
C6
6C
38
ENDCHAR
STARTCHAR 014D
ENCODING 333
SWIDTH 540 0
DWIDTH 9 0
BBX 7 8 1 0
BITMAP
7C
00
7C
C6
C6
C6
C6
7C
ENDCHAR
STARTCHAR 014E
ENCODING 334
SWIDTH 540 0
DWIDTH 9 0
BBX 7 11 1 0
BITMAP
C6
7C
00
38
6C
C6
C6
C6
C6
6C
38
ENDCHAR
STARTCHAR 014F
ENCODING 335
SWIDTH 540 0
DWIDTH 9 0
BBX 7 9 1 0
BITMAP
C6
7C
00
7C
C6
C6
C6
C6
7C
ENDCHAR
STARTCHAR 0150
ENCODING 336
SWIDTH 540 0
DWIDTH 9 0
BBX 8 11 0 0
BITMAP
33
66
CC
00
1C
36
63
63
63
36
1C
ENDCHAR
STARTCHAR 0151
ENCODING 337
SWIDTH 540 0
DWIDTH 9 0
BBX 8 10 0 0
BITMAP
33
66
CC
00
3E
63
63
63
63
3E
ENDCHAR
STARTCHAR 0152
ENCODING 338
SWIDTH 540 0
DWIDTH 9 0
BBX 8 9 0 0
BITMAP
3F
6C
CC
CC
CE
CC
CC
6C
3F
ENDCHAR
STARTCHAR 0153
ENCODING 339
SWIDTH 540 0
DWIDTH 9 0
BBX 8 7 0 0
BITMAP
6E
DB
DB
DE
D8
DC
77
ENDCHAR
STARTCHAR 0154
ENCODING 340
SWIDTH 540 0
DWIDTH 9 0
BBX 7 11 1 0
BITMAP
0C
18
30
00
FC
66
66
7C
6C
66
E6
ENDCHAR
STARTCHAR 0155
ENCODING 341
SWIDTH 540 0
DWIDTH 9 0
BBX 7 10 1 0
BITMAP
06
0C
18
00
DC
76
66
60
60
F0
ENDCHAR
STARTCHAR 0156
ENCODING 342
SWIDTH 540 0
DWIDTH 9 0
BBX 7 11 1 -2
BITMAP
FC
66
66
66
7C
6C
66
66
E6
18
70
ENDCHAR
STARTCHAR 0157
ENCODING 343
SWIDTH 540 0
DWIDTH 9 0
BBX 7 8 1 -2
BITMAP
DC
76
66
60
60
F0
18
70
ENDCHAR
STARTCHAR 0158
ENCODING 344
SWIDTH 540 0
DWIDTH 9 0
BBX 7 11 1 0
BITMAP
6C
38
10
00
FC
66
66
7C
6C
66
E6
ENDCHAR
STARTCHAR 0159
ENCODING 345
SWIDTH 540 0
DWIDTH 9 0
BBX 7 10 1 0
BITMAP
6C
38
10
00
DC
76
66
60
60
F0
ENDCHAR
STARTCHAR 015A
ENCODING 346
SWIDTH 540 0
DWIDTH 9 0
BBX 7 11 1 0
BITMAP
0C
18
30
00
7C
C6
60
38
0C
C6
7C
ENDCHAR
STARTCHAR 015B
ENCODING 347
SWIDTH 540 0
DWIDTH 9 0
BBX 7 10 1 0
BITMAP
06
0C
18
00
7C
C6
70
1C
C6
7C
ENDCHAR
STARTCHAR 015C
ENCODING 348
SWIDTH 540 0
DWIDTH 9 0
BBX 7 11 1 0
BITMAP
10
38
6C
00
7C
C6
60
38
0C
C6
7C
ENDCHAR
STARTCHAR 015D
ENCODING 349
SWIDTH 540 0
DWIDTH 9 0
BBX 7 10 1 0
BITMAP
10
38
6C
00
7C
C6
70
1C
C6
7C
ENDCHAR
STARTCHAR 015E
ENCODING 350
SWIDTH 540 0
DWIDTH 9 0
BBX 7 11 1 -2
BITMAP
7C
C6
C6
60
38
0C
C6
C6
7C
18
70
ENDCHAR
STARTCHAR 015F
ENCODING 351
SWIDTH 540 0
DWIDTH 9 0
BBX 7 8 1 -2
BITMAP
7C
C6
70
1C
C6
7C
18
70
ENDCHAR
STARTCHAR 0160
ENCODING 352
SWIDTH 540 0
DWIDTH 9 0
BBX 7 11 1 0
BITMAP
6C
38
10
00
7C
C6
60
38
0C
C6
7C
ENDCHAR
STARTCHAR 0161
ENCODING 353
SWIDTH 540 0
DWIDTH 9 0
BBX 7 10 1 0
BITMAP
6C
38
10
00
7C
C6
70
1C
C6
7C
ENDCHAR
STARTCHAR 0162
ENCODING 354
SWIDTH 540 0
DWIDTH 9 0
BBX 8 11 0 -2
BITMAP
FF
DB
99
18
18
18
18
18
3C
18
70
ENDCHAR
STARTCHAR 0163
ENCODING 355
SWIDTH 540 0
DWIDTH 9 0
BBX 7 11 1 -2
BITMAP
10
30
30
FC
30
30
30
36
1C
0C
38
ENDCHAR
STARTCHAR 0164
ENCODING 356
SWIDTH 540 0
DWIDTH 9 0
BBX 8 11 0 0
BITMAP
66
3C
18
00
FF
DB
99
18
18
18
3C
ENDCHAR
STARTCHAR 0165
ENCODING 357
SWIDTH 540 0
DWIDTH 9 0
BBX 7 10 1 0
BITMAP
06
16
34
30
FC
30
30
30
36
1C
ENDCHAR
STARTCHAR 0166
ENCODING 358
SWIDTH 540 0
DWIDTH 9 0
BBX 8 9 0 0
BITMAP
FF
DB
99
18
7E
18
18
18
3C
ENDCHAR
STARTCHAR 0167
ENCODING 359
SWIDTH 540 0
DWIDTH 9 0
BBX 7 9 1 0
BITMAP
10
30
30
FC
30
FC
30
36
1C
ENDCHAR
STARTCHAR 0168
ENCODING 360
SWIDTH 540 0
DWIDTH 9 0
BBX 7 11 1 0
BITMAP
76
DC
00
C6
C6
C6
C6
C6
C6
C6
7C
ENDCHAR
STARTCHAR 0169
ENCODING 361
SWIDTH 540 0
DWIDTH 9 0
BBX 7 9 1 0
BITMAP
76
DC
00
CC
CC
CC
CC
CC
76
ENDCHAR
STARTCHAR 016A
ENCODING 362
SWIDTH 540 0
DWIDTH 9 0
BBX 7 11 1 0
BITMAP
FE
00
C6
C6
C6
C6
C6
C6
C6
C6
7C
ENDCHAR
STARTCHAR 016B
ENCODING 363
SWIDTH 540 0
DWIDTH 9 0
BBX 7 8 1 0
BITMAP
FC
00
CC
CC
CC
CC
CC
76
ENDCHAR
STARTCHAR 016C
ENCODING 364
SWIDTH 540 0
DWIDTH 9 0
BBX 7 11 1 0
BITMAP
C6
7C
00
C6
C6
C6
C6
C6
C6
C6
7C
ENDCHAR
STARTCHAR 016D
ENCODING 365
SWIDTH 540 0
DWIDTH 9 0
BBX 7 9 1 0
BITMAP
C6
7C
00
CC
CC
CC
CC
CC
76
ENDCHAR
STARTCHAR 016E
ENCODING 366
SWIDTH 540 0
DWIDTH 9 0
BBX 7 11 1 0
BITMAP
38
6C
38
00
C6
C6
C6
C6
C6
C6
7C
ENDCHAR
STARTCHAR 016F
ENCODING 367
SWIDTH 540 0
DWIDTH 9 0
BBX 7 10 1 0
BITMAP
38
6C
38
00
CC
CC
CC
CC
CC
76
ENDCHAR
STARTCHAR 0170
ENCODING 368
SWIDTH 540 0
DWIDTH 9 0
BBX 8 11 0 0
BITMAP
33
66
CC
00
63
63
63
63
63
63
3E
ENDCHAR
STARTCHAR 0171
ENCODING 369
SWIDTH 540 0
DWIDTH 9 0
BBX 8 10 0 0
BITMAP
33
66
CC
00
66
66
66
66
66
3B
ENDCHAR
STARTCHAR 0172
ENCODING 370
SWIDTH 540 0
DWIDTH 9 0
BBX 7 11 1 -2
BITMAP
C6
C6
C6
C6
C6
C6
C6
C6
7C
18
0E
ENDCHAR
STARTCHAR 0173
ENCODING 371
SWIDTH 540 0
DWIDTH 9 0
BBX 7 8 1 -2
BITMAP
CC
CC
CC
CC
CC
76
18
0E
ENDCHAR
STARTCHAR 0174
ENCODING 372
SWIDTH 540 0
DWIDTH 9 0
BBX 8 11 0 0
BITMAP
18
3C
66
00
C3
C3
DB
DB
FF
66
66
ENDCHAR
STARTCHAR 0175
ENCODING 373
SWIDTH 540 0
DWIDTH 9 0
BBX 8 10 0 0
BITMAP
18
3C
66
00
C3
C3
DB
DB
FF
66
ENDCHAR
STARTCHAR 0176
ENCODING 374
SWIDTH 540 0
DWIDTH 9 0
BBX 8 11 0 0
BITMAP
18
3C
66
00
C3
C3
66
3C
18
18
3C
ENDCHAR
STARTCHAR 0177
ENCODING 375
SWIDTH 540 0
DWIDTH 9 0
BBX 7 12 1 -2
BITMAP
10
38
6C
00
C6
C6
C6
C6
7E
06
0C
78
ENDCHAR
STARTCHAR 0178
ENCODING 376
SWIDTH 540 0
DWIDTH 9 0
BBX 8 11 0 0
BITMAP
C3
C3
00
C3
C3
66
3C
18
18
18
3C
ENDCHAR
STARTCHAR 0179
ENCODING 377
SWIDTH 540 0
DWIDTH 9 0
BBX 7 11 1 0
BITMAP
0C
18
30
00
FE
C6
8C
18
32
66
FE
ENDCHAR
STARTCHAR 017A
ENCODING 378
SWIDTH 540 0
DWIDTH 9 0
BBX 7 10 1 0
BITMAP
06
0C
18
00
FE
CC
18
30
66
FE
ENDCHAR
STARTCHAR 017B
ENCODING 379
SWIDTH 540 0
DWIDTH 9 0
BBX 7 11 1 0
BITMAP
18
18
00
FE
C6
8C
18
30
62
C6
FE
ENDCHAR
STARTCHAR 017C
ENCODING 380
SWIDTH 540 0
DWIDTH 9 0
BBX 7 9 1 0
BITMAP
18
18
00
FE
CC
18
30
66
FE
ENDCHAR
STARTCHAR 017D
ENCODING 381
SWIDTH 540 0
DWIDTH 9 0
BBX 7 11 1 0
BITMAP
6C
38
10
00
FE
C6
8C
18
32
66
FE
ENDCHAR
STARTCHAR 017E
ENCODING 382
SWIDTH 540 0
DWIDTH 9 0
BBX 7 10 1 0
BITMAP
6C
38
10
00
FE
CC
18
30
66
FE
ENDCHAR
STARTCHAR 017F
ENCODING 383
SWIDTH 540 0
DWIDTH 9 0
BBX 6 9 2 0
BITMAP
38
6C
64
60
60
60
60
60
F0
ENDCHAR
STARTCHAR 0192
ENCODING 402
SWIDTH 540 0
DWIDTH 9 0
BBX 8 12 0 -2
BITMAP
0E
1B
18
18
18
7E
18
18
18
18
D8
70
ENDCHAR
STARTCHAR 01A1
ENCODING 417
SWIDTH 540 0
DWIDTH 9 0
BBX 7 6 1 0
BITMAP
7E
D8
D8
D8
D8
70
ENDCHAR
STARTCHAR 01B7
ENCODING 439
SWIDTH 540 0
DWIDTH 9 0
BBX 7 9 1 0
BITMAP
FE
C6
0C
18
3C
06
06
C6
7C
ENDCHAR
STARTCHAR 01FA
ENCODING 506
SWIDTH 540 0
DWIDTH 9 0
BBX 7 11 1 0
BITMAP
3A
6C
38
00
38
6C
C6
C6
FE
C6
C6
ENDCHAR
STARTCHAR 01FB
ENCODING 507
SWIDTH 540 0
DWIDTH 9 0
BBX 7 11 1 0
BITMAP
0C
38
6C
38
00
78
0C
7C
CC
CC
76
ENDCHAR
STARTCHAR 01FC
ENCODING 508
SWIDTH 540 0
DWIDTH 9 0
BBX 7 11 1 0
BITMAP
06
0C
18
00
3E
6C
CC
FE
CC
CC
CE
ENDCHAR
STARTCHAR 01FD
ENCODING 509
SWIDTH 540 0
DWIDTH 9 0
BBX 8 11 0 0
BITMAP
06
0C
18
00
6E
3B
1B
7E
D8
DC
77
ENDCHAR
STARTCHAR 01FE
ENCODING 510
SWIDTH 540 0
DWIDTH 9 0
BBX 7 12 1 -1
BITMAP
0C
18
30
06
3C
6C
CE
D6
E6
6C
78
C0
ENDCHAR
STARTCHAR 01FF
ENCODING 511
SWIDTH 540 0
DWIDTH 9 0
BBX 7 10 1 0
BITMAP
0C
18
30
00
7C
CE
DE
F6
E6
7C
ENDCHAR
STARTCHAR 0218
ENCODING 536
SWIDTH 540 0
DWIDTH 9 0
BBX 7 11 1 -2
BITMAP
7C
C6
C6
60
38
0C
C6
C6
7C
18
30
ENDCHAR
STARTCHAR 0219
ENCODING 537
SWIDTH 540 0
DWIDTH 9 0
BBX 7 8 1 -2
BITMAP
7C
C6
70
1C
C6
7C
18
30
ENDCHAR
STARTCHAR 021A
ENCODING 538
SWIDTH 540 0
DWIDTH 9 0
BBX 8 11 0 -2
BITMAP
FF
DB
99
18
18
18
18
18
3C
18
30
ENDCHAR
STARTCHAR 021B
ENCODING 539
SWIDTH 540 0
DWIDTH 9 0
BBX 7 11 1 -2
BITMAP
10
30
30
FC
30
30
30
36
1C
0C
18
ENDCHAR
STARTCHAR 0251
ENCODING 593
SWIDTH 540 0
DWIDTH 9 0
BBX 7 6 1 0
BITMAP
76
DC
D8
D8
DC
76
ENDCHAR
STARTCHAR 0278
ENCODING 632
SWIDTH 540 0
DWIDTH 9 0
BBX 6 9 1 0
BITMAP
FC
30
78
CC
CC
CC
78
30
FC
ENDCHAR
STARTCHAR 02C6
ENCODING 710
SWIDTH 540 0
DWIDTH 9 0
BBX 5 3 2 7
BITMAP
20
70
D8
ENDCHAR
STARTCHAR 02C7
ENCODING 711
SWIDTH 540 0
DWIDTH 9 0
BBX 5 3 2 7
BITMAP
D8
70
20
ENDCHAR
STARTCHAR 02C9
ENCODING 713
SWIDTH 540 0
DWIDTH 9 0
BBX 5 1 2 9
BITMAP
F8
ENDCHAR
STARTCHAR 02D8
ENCODING 728
SWIDTH 540 0
DWIDTH 9 0
BBX 7 2 1 8
BITMAP
C6
7C
ENDCHAR
STARTCHAR 02D9
ENCODING 729
SWIDTH 540 0
DWIDTH 9 0
BBX 2 2 3 8
BITMAP
C0
C0
ENDCHAR
STARTCHAR 02DA
ENCODING 730
SWIDTH 540 0
DWIDTH 9 0
BBX 5 3 2 8
BITMAP
70
D8
70
ENDCHAR
STARTCHAR 02DB
ENCODING 731
SWIDTH 540 0
DWIDTH 9 0
BBX 4 2 2 -2
BITMAP
C0
70
ENDCHAR
STARTCHAR 02DC
ENCODING 732
SWIDTH 540 0
DWIDTH 9 0
BBX 7 2 1 8
BITMAP
76
DC
ENDCHAR
STARTCHAR 02DD
ENCODING 733
SWIDTH 540 0
DWIDTH 9 0
BBX 8 3 0 8
BITMAP
33
66
CC
ENDCHAR
STARTCHAR 037E
ENCODING 894
SWIDTH 540 0
DWIDTH 9 0
BBX 3 8 2 0
BITMAP
60
60
00
00
00
60
60
C0
ENDCHAR
STARTCHAR 0384
ENCODING 900
SWIDTH 540 0
DWIDTH 9 0
BBX 4 3 3 7
BITMAP
30
60
C0
ENDCHAR
STARTCHAR 0385
ENCODING 901
SWIDTH 540 0
DWIDTH 9 0
BBX 8 4 0 7
BITMAP
06
0C
DB
C3
ENDCHAR
STARTCHAR 0386
ENCODING 902
SWIDTH 540 0
DWIDTH 9 0
BBX 8 9 0 0
BITMAP
88
9C
B6
63
63
7F
63
63
63
ENDCHAR
STARTCHAR 0387
ENCODING 903
SWIDTH 540 0
DWIDTH 9 0
BBX 2 2 3 4
BITMAP
C0
C0
ENDCHAR
STARTCHAR 0388
ENCODING 904
SWIDTH 540 0
DWIDTH 9 0
BBX 8 9 0 0
BITMAP
BF
B3
B1
34
3C
34
31
33
7F
ENDCHAR
STARTCHAR 0389
ENCODING 905
SWIDTH 540 0
DWIDTH 9 0
BBX 8 9 0 0
BITMAP
B3
B3
B3
33
3F
33
33
33
33
ENDCHAR
STARTCHAR 038A
ENCODING 906
SWIDTH 540 0
DWIDTH 9 0
BBX 6 9 0 0
BITMAP
BC
98
98
18
18
18
18
18
3C
ENDCHAR
STARTCHAR 038C
ENCODING 908
SWIDTH 540 0
DWIDTH 9 0
BBX 8 9 0 0
BITMAP
9C
B6
63
63
63
63
63
36
1C
ENDCHAR
STARTCHAR 038E
ENCODING 910
SWIDTH 540 0
DWIDTH 9 0
BBX 8 9 0 0
BITMAP
B3
B3
B3
33
1E
0C
0C
0C
1E
ENDCHAR
STARTCHAR 038F
ENCODING 911
SWIDTH 540 0
DWIDTH 9 0
BBX 8 9 0 0
BITMAP
9C
B6
63
63
63
63
36
36
77
ENDCHAR
STARTCHAR 0390
ENCODING 912
SWIDTH 540 0
DWIDTH 9 0
BBX 8 11 0 0
BITMAP
06
0C
DB
C3
00
18
18
18
18
1B
0E
ENDCHAR
STARTCHAR 0391
ENCODING 913
SWIDTH 540 0
DWIDTH 9 0
BBX 7 9 1 0
BITMAP
10
38
6C
C6
C6
FE
C6
C6
C6
ENDCHAR
STARTCHAR 0392
ENCODING 914
SWIDTH 540 0
DWIDTH 9 0
BBX 7 9 1 0
BITMAP
FC
66
66
66
7C
66
66
66
FC
ENDCHAR
STARTCHAR 0393
ENCODING 915
SWIDTH 540 0
DWIDTH 9 0
BBX 7 9 1 0
BITMAP
FE
66
62
60
60
60
60
60
F0
ENDCHAR
STARTCHAR 0394
ENCODING 916
SWIDTH 540 0
DWIDTH 9 0
BBX 7 9 1 0
BITMAP
10
38
6C
C6
C6
C6
C6
C6
FE
ENDCHAR
STARTCHAR 0395
ENCODING 917
SWIDTH 540 0
DWIDTH 9 0
BBX 7 9 1 0
BITMAP
FE
66
62
68
78
68
62
66
FE
ENDCHAR
STARTCHAR 0396
ENCODING 918
SWIDTH 540 0
DWIDTH 9 0
BBX 8 9 0 0
BITMAP
FF
C3
86
0C
18
30
61
C3
FF
ENDCHAR
STARTCHAR 0397
ENCODING 919
SWIDTH 540 0
DWIDTH 9 0
BBX 7 9 1 0
BITMAP
C6
C6
C6
C6
FE
C6
C6
C6
C6
ENDCHAR
STARTCHAR 0398
ENCODING 920
SWIDTH 540 0
DWIDTH 9 0
BBX 7 9 1 0
BITMAP
38
6C
C6
C6
FE
C6
C6
6C
38
ENDCHAR
STARTCHAR 0399
ENCODING 921
SWIDTH 540 0
DWIDTH 9 0
BBX 4 9 2 0
BITMAP
F0
60
60
60
60
60
60
60
F0
ENDCHAR
STARTCHAR 039A
ENCODING 922
SWIDTH 540 0
DWIDTH 9 0
BBX 7 9 1 0
BITMAP
E6
66
6C
6C
78
6C
6C
66
E6
ENDCHAR
STARTCHAR 039B
ENCODING 923
SWIDTH 540 0
DWIDTH 9 0
BBX 7 9 1 0
BITMAP
10
38
6C
C6
C6
C6
C6
C6
C6
ENDCHAR
STARTCHAR 039C
ENCODING 924
SWIDTH 540 0
DWIDTH 9 0
BBX 8 9 0 0
BITMAP
C3
E7
FF
DB
C3
C3
C3
C3
C3
ENDCHAR
STARTCHAR 039D
ENCODING 925
SWIDTH 540 0
DWIDTH 9 0
BBX 7 9 1 0
BITMAP
C6
E6
F6
FE
DE
CE
C6
C6
C6
ENDCHAR
STARTCHAR 039E
ENCODING 926
SWIDTH 540 0
DWIDTH 9 0
BBX 7 9 1 0
BITMAP
FE
82
00
44
7C
44
00
82
FE
ENDCHAR
STARTCHAR 039F
ENCODING 927
SWIDTH 540 0
DWIDTH 9 0
BBX 7 9 1 0
BITMAP
38
6C
C6
C6
C6
C6
C6
6C
38
ENDCHAR
STARTCHAR 03A0
ENCODING 928
SWIDTH 540 0
DWIDTH 9 0
BBX 6 9 1 0
BITMAP
FC
CC
CC
CC
CC
CC
CC
CC
CC
ENDCHAR
STARTCHAR 03A1
ENCODING 929
SWIDTH 540 0
DWIDTH 9 0
BBX 7 9 1 0
BITMAP
FC
66
66
66
7C
60
60
60
F0
ENDCHAR
STARTCHAR 03A3
ENCODING 931
SWIDTH 540 0
DWIDTH 9 0
BBX 7 9 1 0
BITMAP
FE
C6
62
30
18
30
62
C6
FE
ENDCHAR
STARTCHAR 03A4
ENCODING 932
SWIDTH 540 0
DWIDTH 9 0
BBX 8 9 0 0
BITMAP
FF
DB
99
18
18
18
18
18
3C
ENDCHAR
STARTCHAR 03A5
ENCODING 933
SWIDTH 540 0
DWIDTH 9 0
BBX 8 9 0 0
BITMAP
C3
C3
C3
66
3C
18
18
18
3C
ENDCHAR
STARTCHAR 03A6
ENCODING 934
SWIDTH 540 0
DWIDTH 9 0
BBX 8 9 0 0
BITMAP
18
7E
DB
DB
DB
DB
7E
18
3C
ENDCHAR
STARTCHAR 03A7
ENCODING 935
SWIDTH 540 0
DWIDTH 9 0
BBX 8 9 0 0
BITMAP
C3
C3
66
3C
18
3C
66
C3
C3
ENDCHAR
STARTCHAR 03A8
ENCODING 936
SWIDTH 540 0
DWIDTH 9 0
BBX 8 9 0 0
BITMAP
DB
DB
DB
DB
DB
7E
18
18
3C
ENDCHAR
STARTCHAR 03A9
ENCODING 937
SWIDTH 540 0
DWIDTH 9 0
BBX 7 9 1 0
BITMAP
7C
C6
C6
C6
C6
C6
6C
6C
EE
ENDCHAR
STARTCHAR 03AA
ENCODING 938
SWIDTH 540 0
DWIDTH 9 0
BBX 6 11 1 0
BITMAP
CC
CC
00
78
30
30
30
30
30
30
78
ENDCHAR
STARTCHAR 03AB
ENCODING 939
SWIDTH 540 0
DWIDTH 9 0
BBX 8 11 0 0
BITMAP
C3
C3
00
C3
C3
66
3C
18
18
18
3C
ENDCHAR
STARTCHAR 03AC
ENCODING 940
SWIDTH 540 0
DWIDTH 9 0
BBX 7 10 1 0
BITMAP
06
0C
18
00
76
CC
CC
CC
CC
76
ENDCHAR
STARTCHAR 03AD
ENCODING 941
SWIDTH 540 0
DWIDTH 9 0
BBX 7 10 1 0
BITMAP
06
0C
18
00
7C
C6
70
C0
C6
7C
ENDCHAR
STARTCHAR 03AE
ENCODING 942
SWIDTH 540 0
DWIDTH 9 0
BBX 7 10 1 0
BITMAP
06
0C
18
00
DC
66
66
66
66
66
ENDCHAR
STARTCHAR 03AF
ENCODING 943
SWIDTH 540 0
DWIDTH 9 0
BBX 5 10 3 0
BITMAP
18
30
60
00
C0
C0
C0
C0
D8
70
ENDCHAR
STARTCHAR 03B0
ENCODING 944
SWIDTH 540 0
DWIDTH 9 0
BBX 8 11 0 0
BITMAP
06
0C
DB
C3
00
63
63
63
63
63
3E
ENDCHAR
STARTCHAR 03B1
ENCODING 945
SWIDTH 540 0
DWIDTH 9 0
BBX 7 6 1 0
BITMAP
76
CC
CC
CC
CC
76
ENDCHAR
STARTCHAR 03B2
ENCODING 946
SWIDTH 540 0
DWIDTH 9 0
BBX 7 11 1 -2
BITMAP
70
D8
CC
CC
F8
CC
C6
C6
FC
C0
C0
ENDCHAR
STARTCHAR 03B3
ENCODING 947
SWIDTH 540 0
DWIDTH 9 0
BBX 7 8 1 -2
BITMAP
C6
6C
38
6C
C6
C6
6C
38
ENDCHAR
STARTCHAR 03B4
ENCODING 948
SWIDTH 540 0
DWIDTH 9 0
BBX 7 9 1 0
BITMAP
7C
C6
60
30
7C
C6
C6
C6
7C
ENDCHAR
STARTCHAR 03B5
ENCODING 949
SWIDTH 540 0
DWIDTH 9 0
BBX 7 6 1 0
BITMAP
7C
C6
70
C0
C6
7C
ENDCHAR
STARTCHAR 03B6
ENCODING 950
SWIDTH 540 0
DWIDTH 9 0
BBX 7 11 1 -2
BITMAP
FE
8C
38
60
C0
C0
C0
C0
78
0C
38
ENDCHAR
STARTCHAR 03B7
ENCODING 951
SWIDTH 540 0
DWIDTH 9 0
BBX 7 6 1 0
BITMAP
DC
66
66
66
66
66
ENDCHAR
STARTCHAR 03B8
ENCODING 952
SWIDTH 540 0
DWIDTH 9 0
BBX 7 9 1 0
BITMAP
38
6C
C6
C6
7E
06
C6
6C
38
ENDCHAR
STARTCHAR 03B9
ENCODING 953
SWIDTH 540 0
DWIDTH 9 0
BBX 5 6 3 0
BITMAP
C0
C0
C0
C0
D8
70
ENDCHAR
STARTCHAR 03BA
ENCODING 954
SWIDTH 540 0
DWIDTH 9 0
BBX 6 6 2 0
BITMAP
CC
D8
F0
F0
D8
CC
ENDCHAR
STARTCHAR 03BB
ENCODING 955
SWIDTH 540 0
DWIDTH 9 0
BBX 7 9 1 0
BITMAP
3C
66
C6
06
1E
36
66
C6
C6
ENDCHAR
STARTCHAR 03BC
ENCODING 956
SWIDTH 540 0
DWIDTH 9 0
BBX 8 8 0 -2
BITMAP
C6
C6
C6
C6
C6
FB
C0
C0
ENDCHAR
STARTCHAR 03BD
ENCODING 957
SWIDTH 540 0
DWIDTH 9 0
BBX 8 6 0 0
BITMAP
C3
C3
C3
66
3C
18
ENDCHAR
STARTCHAR 03BE
ENCODING 958
SWIDTH 540 0
DWIDTH 9 0
BBX 7 11 1 -2
BITMAP
FE
0C
78
C0
7C
C0
C0
C0
78
0C
38
ENDCHAR
STARTCHAR 03BF
ENCODING 959
SWIDTH 540 0
DWIDTH 9 0
BBX 7 6 1 0
BITMAP
7C
C6
C6
C6
C6
7C
ENDCHAR
STARTCHAR 03C0
ENCODING 960
SWIDTH 540 0
DWIDTH 9 0
BBX 8 6 0 0
BITMAP
FF
66
66
66
66
66
ENDCHAR
STARTCHAR 03C1
ENCODING 961
SWIDTH 540 0
DWIDTH 9 0
BBX 7 8 1 -2
BITMAP
7C
C6
C6
C6
FC
C0
C0
C0
ENDCHAR
STARTCHAR 03C2
ENCODING 962
SWIDTH 540 0
DWIDTH 9 0
BBX 7 7 1 -1
BITMAP
7C
C6
C0
C0
7C
06
3C
ENDCHAR
STARTCHAR 03C3
ENCODING 963
SWIDTH 540 0
DWIDTH 9 0
BBX 7 6 1 0
BITMAP
7E
D8
CC
CC
CC
78
ENDCHAR
STARTCHAR 03C4
ENCODING 964
SWIDTH 540 0
DWIDTH 9 0
BBX 7 6 1 0
BITMAP
FE
30
30
30
36
1C
ENDCHAR
STARTCHAR 03C5
ENCODING 965
SWIDTH 540 0
DWIDTH 9 0
BBX 7 6 1 0
BITMAP
C6
C6
C6
C6
C6
7C
ENDCHAR
STARTCHAR 03C6
ENCODING 966
SWIDTH 540 0
DWIDTH 9 0
BBX 8 8 0 -2
BITMAP
CE
DB
DB
DB
7E
18
18
18
ENDCHAR
STARTCHAR 03C7
ENCODING 967
SWIDTH 540 0
DWIDTH 9 0
BBX 7 8 1 -2
BITMAP
C6
C6
6C
38
38
6C
C6
C6
ENDCHAR
STARTCHAR 03C8
ENCODING 968
SWIDTH 540 0
DWIDTH 9 0
BBX 8 9 0 -2
BITMAP
18
DB
DB
DB
DB
7E
18
18
18
ENDCHAR
STARTCHAR 03C9
ENCODING 969
SWIDTH 540 0
DWIDTH 9 0
BBX 8 6 0 0
BITMAP
66
C3
DB
DB
FF
66
ENDCHAR
STARTCHAR 03CA
ENCODING 970
SWIDTH 540 0
DWIDTH 9 0
BBX 7 9 1 0
BITMAP
CC
CC
00
30
30
30
30
36
1C
ENDCHAR
STARTCHAR 03CB
ENCODING 971
SWIDTH 540 0
DWIDTH 9 0
BBX 7 9 1 0
BITMAP
C6
C6
00
C6
C6
C6
C6
C6
7C
ENDCHAR
STARTCHAR 03CC
ENCODING 972
SWIDTH 540 0
DWIDTH 9 0
BBX 7 10 1 0
BITMAP
06
0C
18
00
7C
C6
C6
C6
C6
7C
ENDCHAR
STARTCHAR 03CD
ENCODING 973
SWIDTH 540 0
DWIDTH 9 0
BBX 7 10 1 0
BITMAP
06
0C
18
00
C6
C6
C6
C6
C6
7C
ENDCHAR
STARTCHAR 03CE
ENCODING 974
SWIDTH 540 0
DWIDTH 9 0
BBX 8 10 0 0
BITMAP
06
0C
18
00
66
C3
DB
DB
FF
66
ENDCHAR
STARTCHAR 03D0
ENCODING 976
SWIDTH 540 0
DWIDTH 9 0
BBX 7 9 1 -2
BITMAP
7C
C6
FC
C6
C6
FC
C0
C0
40
ENDCHAR
STARTCHAR 03F4
ENCODING 1012
SWIDTH 540 0
DWIDTH 9 0
BBX 7 9 1 0
BITMAP
38
6C
C6
C6
FE
C6
C6
6C
38
ENDCHAR
STARTCHAR 0400
ENCODING 1024
SWIDTH 540 0
DWIDTH 9 0
BBX 7 11 1 0
BITMAP
30
18
FE
66
62
68
78
68
62
66
FE
ENDCHAR
STARTCHAR 0401
ENCODING 1025
SWIDTH 540 0
DWIDTH 9 0
BBX 7 11 1 0
BITMAP
6C
00
FE
66
62
68
78
68
62
66
FE
ENDCHAR
STARTCHAR 0402
ENCODING 1026
SWIDTH 540 0
DWIDTH 9 0
BBX 8 9 0 0
BITMAP
FE
B2
30
36
3B
33
33
33
76
ENDCHAR
STARTCHAR 0403
ENCODING 1027
SWIDTH 540 0
DWIDTH 9 0
BBX 7 11 1 0
BITMAP
0C
18
FE
66
62
60
60
60
60
60
F0
ENDCHAR
STARTCHAR 0404
ENCODING 1028
SWIDTH 540 0
DWIDTH 9 0
BBX 7 9 1 0
BITMAP
3C
66
C2
C8
F8
C8
C2
66
3C
ENDCHAR
STARTCHAR 0405
ENCODING 1029
SWIDTH 540 0
DWIDTH 9 0
BBX 7 9 1 0
BITMAP
7C
C6
C6
60
38
0C
C6
C6
7C
ENDCHAR
STARTCHAR 0406
ENCODING 1030
SWIDTH 540 0
DWIDTH 9 0
BBX 4 9 2 0
BITMAP
F0
60
60
60
60
60
60
60
F0
ENDCHAR
STARTCHAR 0407
ENCODING 1031
SWIDTH 540 0
DWIDTH 9 0
BBX 6 11 1 0
BITMAP
CC
00
78
30
30
30
30
30
30
30
78
ENDCHAR
STARTCHAR 0408
ENCODING 1032
SWIDTH 540 0
DWIDTH 9 0
BBX 7 9 1 0
BITMAP
1E
0C
0C
0C
0C
0C
CC
CC
78
ENDCHAR
STARTCHAR 0409
ENCODING 1033
SWIDTH 540 0
DWIDTH 9 0
BBX 8 9 0 0
BITMAP
FC
D8
D8
D8
DE
DB
DB
DB
DE
ENDCHAR
STARTCHAR 040A
ENCODING 1034
SWIDTH 540 0
DWIDTH 9 0
BBX 8 9 0 0
BITMAP
D8
D8
D8
D8
FE
DB
DB
DB
DE
ENDCHAR
STARTCHAR 040B
ENCODING 1035
SWIDTH 540 0
DWIDTH 9 0
BBX 8 9 0 0
BITMAP
FE
B2
30
30
3E
33
33
33
73
ENDCHAR
STARTCHAR 040C
ENCODING 1036
SWIDTH 540 0
DWIDTH 9 0
BBX 7 11 1 0
BITMAP
0C
18
E6
66
6C
6C
78
6C
6C
66
E6
ENDCHAR
STARTCHAR 040D
ENCODING 1037
SWIDTH 540 0
DWIDTH 9 0
BBX 7 11 1 0
BITMAP
30
18
C6
C6
C6
CE
DE
F6
E6
C6
C6
ENDCHAR
STARTCHAR 040E
ENCODING 1038
SWIDTH 540 0
DWIDTH 9 0
BBX 7 11 1 0
BITMAP
28
38
D6
C6
C6
C6
7E
06
06
C6
7C
ENDCHAR
STARTCHAR 040F
ENCODING 1039
SWIDTH 540 0
DWIDTH 9 0
BBX 8 11 0 -2
BITMAP
E7
66
66
66
66
66
66
66
FF
18
18
ENDCHAR
STARTCHAR 0410
ENCODING 1040
SWIDTH 540 0
DWIDTH 9 0
BBX 7 9 1 0
BITMAP
10
38
6C
C6
C6
FE
C6
C6
C6
ENDCHAR
STARTCHAR 0411
ENCODING 1041
SWIDTH 540 0
DWIDTH 9 0
BBX 7 9 1 0
BITMAP
FE
66
62
60
7C
66
66
66
FC
ENDCHAR
STARTCHAR 0412
ENCODING 1042
SWIDTH 540 0
DWIDTH 9 0
BBX 7 9 1 0
BITMAP
FC
66
66
66
7C
66
66
66
FC
ENDCHAR
STARTCHAR 0413
ENCODING 1043
SWIDTH 540 0
DWIDTH 9 0
BBX 7 9 1 0
BITMAP
FE
66
62
60
60
60
60
60
F0
ENDCHAR
STARTCHAR 0414
ENCODING 1044
SWIDTH 540 0
DWIDTH 9 0
BBX 8 10 0 -1
BITMAP
1E
36
66
66
66
66
66
66
FF
C3
ENDCHAR
STARTCHAR 0415
ENCODING 1045
SWIDTH 540 0
DWIDTH 9 0
BBX 7 9 1 0
BITMAP
FE
66
62
68
78
68
62
66
FE
ENDCHAR
STARTCHAR 0416
ENCODING 1046
SWIDTH 540 0
DWIDTH 9 0
BBX 8 9 0 0
BITMAP
DB
DB
DB
5A
3C
5A
DB
DB
DB
ENDCHAR
STARTCHAR 0417
ENCODING 1047
SWIDTH 540 0
DWIDTH 9 0
BBX 7 9 1 0
BITMAP
7C
C6
06
06
3C
06
06
C6
7C
ENDCHAR
STARTCHAR 0418
ENCODING 1048
SWIDTH 540 0
DWIDTH 9 0
BBX 7 9 1 0
BITMAP
C6
C6
C6
CE
DE
F6
E6
C6
C6
ENDCHAR
STARTCHAR 0419
ENCODING 1049
SWIDTH 540 0
DWIDTH 9 0
BBX 7 11 1 0
BITMAP
28
38
D6
C6
C6
CE
DE
F6
E6
C6
C6
ENDCHAR
STARTCHAR 041A
ENCODING 1050
SWIDTH 540 0
DWIDTH 9 0
BBX 7 9 1 0
BITMAP
E6
66
6C
6C
78
6C
6C
66
E6
ENDCHAR
STARTCHAR 041B
ENCODING 1051
SWIDTH 540 0
DWIDTH 9 0
BBX 7 9 1 0
BITMAP
1E
36
66
66
66
66
66
66
C6
ENDCHAR
STARTCHAR 041C
ENCODING 1052
SWIDTH 540 0
DWIDTH 9 0
BBX 8 9 0 0
BITMAP
C3
E7
FF
DB
C3
C3
C3
C3
C3
ENDCHAR
STARTCHAR 041D
ENCODING 1053
SWIDTH 540 0
DWIDTH 9 0
BBX 7 9 1 0
BITMAP
C6
C6
C6
C6
FE
C6
C6
C6
C6
ENDCHAR
STARTCHAR 041E
ENCODING 1054
SWIDTH 540 0
DWIDTH 9 0
BBX 7 9 1 0
BITMAP
7C
C6
C6
C6
C6
C6
C6
C6
7C
ENDCHAR
STARTCHAR 041F
ENCODING 1055
SWIDTH 540 0
DWIDTH 9 0
BBX 7 9 1 0
BITMAP
FE
C6
C6
C6
C6
C6
C6
C6
C6
ENDCHAR
STARTCHAR 0420
ENCODING 1056
SWIDTH 540 0
DWIDTH 9 0
BBX 7 9 1 0
BITMAP
FC
66
66
66
7C
60
60
60
F0
ENDCHAR
STARTCHAR 0421
ENCODING 1057
SWIDTH 540 0
DWIDTH 9 0
BBX 7 9 1 0
BITMAP
3C
66
C2
C0
C0
C0
C2
66
3C
ENDCHAR
STARTCHAR 0422
ENCODING 1058
SWIDTH 540 0
DWIDTH 9 0
BBX 8 9 0 0
BITMAP
FF
DB
99
18
18
18
18
18
3C
ENDCHAR
STARTCHAR 0423
ENCODING 1059
SWIDTH 540 0
DWIDTH 9 0
BBX 7 9 1 0
BITMAP
C6
C6
C6
C6
7E
06
06
C6
7C
ENDCHAR
STARTCHAR 0424
ENCODING 1060
SWIDTH 540 0
DWIDTH 9 0
BBX 8 10 0 0
BITMAP
18
7E
DB
DB
DB
DB
DB
7E
18
3C
ENDCHAR
STARTCHAR 0425
ENCODING 1061
SWIDTH 540 0
DWIDTH 9 0
BBX 8 9 0 0
BITMAP
C3
C3
66
3C
18
3C
66
C3
C3
ENDCHAR
STARTCHAR 0426
ENCODING 1062
SWIDTH 540 0
DWIDTH 9 0
BBX 7 10 1 -1
BITMAP
CC
CC
CC
CC
CC
CC
CC
CC
FE
06
ENDCHAR
STARTCHAR 0427
ENCODING 1063
SWIDTH 540 0
DWIDTH 9 0
BBX 7 9 1 0
BITMAP
C6
C6
C6
C6
7E
06
06
06
06
ENDCHAR
STARTCHAR 0428
ENCODING 1064
SWIDTH 540 0
DWIDTH 9 0
BBX 8 9 0 0
BITMAP
DB
DB
DB
DB
DB
DB
DB
DB
FF
ENDCHAR
STARTCHAR 0429
ENCODING 1065
SWIDTH 540 0
DWIDTH 9 0
BBX 8 10 0 -1
BITMAP
DB
DB
DB
DB
DB
DB
DB
DB
FF
03
ENDCHAR
STARTCHAR 042A
ENCODING 1066
SWIDTH 540 0
DWIDTH 9 0
BBX 8 9 0 0
BITMAP
F0
30
30
30
3E
33
33
33
3E
ENDCHAR
STARTCHAR 042B
ENCODING 1067
SWIDTH 540 0
DWIDTH 9 0
BBX 8 9 0 0
BITMAP
C3
C3
C3
C3
FB
CD
CD
CD
FB
ENDCHAR
STARTCHAR 042C
ENCODING 1068
SWIDTH 540 0
DWIDTH 9 0
BBX 6 9 1 0
BITMAP
C0
C0
C0
C0
F8
CC
CC
CC
F8
ENDCHAR
STARTCHAR 042D
ENCODING 1069
SWIDTH 540 0
DWIDTH 9 0
BBX 7 9 1 0
BITMAP
78
CC
06
06
3E
06
06
CC
78
ENDCHAR
STARTCHAR 042E
ENCODING 1070
SWIDTH 540 0
DWIDTH 9 0
BBX 8 9 0 0
BITMAP
CE
DB
DB
DB
FB
DB
DB
DB
CE
ENDCHAR
STARTCHAR 042F
ENCODING 1071
SWIDTH 540 0
DWIDTH 9 0
BBX 7 9 1 0
BITMAP
7E
C6
C6
C6
7E
36
36
66
C6
ENDCHAR
STARTCHAR 0430
ENCODING 1072
SWIDTH 540 0
DWIDTH 9 0
BBX 7 6 1 0
BITMAP
78
0C
7C
CC
CC
76
ENDCHAR
STARTCHAR 0431
ENCODING 1073
SWIDTH 540 0
DWIDTH 9 0
BBX 7 6 1 0
BITMAP
FE
60
7C
66
66
FC
ENDCHAR
STARTCHAR 0432
ENCODING 1074
SWIDTH 540 0
DWIDTH 9 0
BBX 7 6 1 0
BITMAP
FC
66
7C
66
66
FC
ENDCHAR
STARTCHAR 0433
ENCODING 1075
SWIDTH 540 0
DWIDTH 9 0
BBX 7 6 1 0
BITMAP
FE
66
60
60
60
F0
ENDCHAR
STARTCHAR 0434
ENCODING 1076
SWIDTH 540 0
DWIDTH 9 0
BBX 8 7 0 -1
BITMAP
1E
36
66
66
66
FF
C3
ENDCHAR
STARTCHAR 0435
ENCODING 1077
SWIDTH 540 0
DWIDTH 9 0
BBX 7 6 1 0
BITMAP
7C
C6
FE
C0
C6
7C
ENDCHAR
STARTCHAR 0436
ENCODING 1078
SWIDTH 540 0
DWIDTH 9 0
BBX 8 6 0 0
BITMAP
DB
5A
3C
5A
DB
DB
ENDCHAR
STARTCHAR 0437
ENCODING 1079
SWIDTH 540 0
DWIDTH 9 0
BBX 7 6 1 0
BITMAP
7C
C6
1C
06
C6
7C
ENDCHAR
STARTCHAR 0438
ENCODING 1080
SWIDTH 540 0
DWIDTH 9 0
BBX 7 6 1 0
BITMAP
C6
CE
DE
F6
E6
C6
ENDCHAR
STARTCHAR 0439
ENCODING 1081
SWIDTH 540 0
DWIDTH 9 0
BBX 7 9 1 0
BITMAP
28
38
10
C6
CE
DE
F6
E6
C6
ENDCHAR
STARTCHAR 043A
ENCODING 1082
SWIDTH 540 0
DWIDTH 9 0
BBX 7 6 1 0
BITMAP
E6
6C
78
78
6C
E6
ENDCHAR
STARTCHAR 043B
ENCODING 1083
SWIDTH 540 0
DWIDTH 9 0
BBX 7 6 1 0
BITMAP
1E
36
66
66
66
C6
ENDCHAR
STARTCHAR 043C
ENCODING 1084
SWIDTH 540 0
DWIDTH 9 0
BBX 8 6 0 0
BITMAP
C3
E7
FF
DB
C3
C3
ENDCHAR
STARTCHAR 043D
ENCODING 1085
SWIDTH 540 0
DWIDTH 9 0
BBX 7 6 1 0
BITMAP
C6
C6
FE
C6
C6
C6
ENDCHAR
STARTCHAR 043E
ENCODING 1086
SWIDTH 540 0
DWIDTH 9 0
BBX 7 6 1 0
BITMAP
7C
C6
C6
C6
C6
7C
ENDCHAR
STARTCHAR 043F
ENCODING 1087
SWIDTH 540 0
DWIDTH 9 0
BBX 7 6 1 0
BITMAP
FE
C6
C6
C6
C6
C6
ENDCHAR
STARTCHAR 0440
ENCODING 1088
SWIDTH 540 0
DWIDTH 9 0
BBX 7 8 1 -2
BITMAP
DC
66
66
66
7C
60
60
F0
ENDCHAR
STARTCHAR 0441
ENCODING 1089
SWIDTH 540 0
DWIDTH 9 0
BBX 7 6 1 0
BITMAP
7C
C6
C0
C0
C6
7C
ENDCHAR
STARTCHAR 0442
ENCODING 1090
SWIDTH 540 0
DWIDTH 9 0
BBX 8 6 0 0
BITMAP
FF
DB
18
18
18
3C
ENDCHAR
STARTCHAR 0443
ENCODING 1091
SWIDTH 540 0
DWIDTH 9 0
BBX 7 8 1 -2
BITMAP
C6
C6
C6
6C
38
30
60
C0
ENDCHAR
STARTCHAR 0444
ENCODING 1092
SWIDTH 540 0
DWIDTH 9 0
BBX 8 9 0 -2
BITMAP
18
7E
DB
DB
DB
DB
7E
18
3C
ENDCHAR
STARTCHAR 0445
ENCODING 1093
SWIDTH 540 0
DWIDTH 9 0
BBX 7 6 1 0
BITMAP
C6
6C
38
38
6C
C6
ENDCHAR
STARTCHAR 0446
ENCODING 1094
SWIDTH 540 0
DWIDTH 9 0
BBX 7 7 1 -1
BITMAP
CC
CC
CC
CC
CC
FE
06
ENDCHAR
STARTCHAR 0447
ENCODING 1095
SWIDTH 540 0
DWIDTH 9 0
BBX 7 6 1 0
BITMAP
C6
C6
C6
7E
06
06
ENDCHAR
STARTCHAR 0448
ENCODING 1096
SWIDTH 540 0
DWIDTH 9 0
BBX 8 6 0 0
BITMAP
DB
DB
DB
DB
DB
FF
ENDCHAR
STARTCHAR 0449
ENCODING 1097
SWIDTH 540 0
DWIDTH 9 0
BBX 8 7 0 -1
BITMAP
DB
DB
DB
DB
DB
FF
03
ENDCHAR
STARTCHAR 044A
ENCODING 1098
SWIDTH 540 0
DWIDTH 9 0
BBX 8 6 0 0
BITMAP
F0
30
3E
33
33
3E
ENDCHAR
STARTCHAR 044B
ENCODING 1099
SWIDTH 540 0
DWIDTH 9 0
BBX 8 6 0 0
BITMAP
C3
C3
FB
CD
CD
FB
ENDCHAR
STARTCHAR 044C
ENCODING 1100
SWIDTH 540 0
DWIDTH 9 0
BBX 6 6 1 0
BITMAP
C0
C0
F8
CC
CC
F8
ENDCHAR
STARTCHAR 044D
ENCODING 1101
SWIDTH 540 0
DWIDTH 9 0
BBX 7 6 1 0
BITMAP
7C
C6
1E
06
C6
7C
ENDCHAR
STARTCHAR 044E
ENCODING 1102
SWIDTH 540 0
DWIDTH 9 0
BBX 8 6 0 0
BITMAP
CE
DB
FB
DB
DB
CE
ENDCHAR
STARTCHAR 044F
ENCODING 1103
SWIDTH 540 0
DWIDTH 9 0
BBX 7 6 1 0
BITMAP
7E
C6
7E
36
66
C6
ENDCHAR
STARTCHAR 0450
ENCODING 1104
SWIDTH 540 0
DWIDTH 9 0
BBX 7 10 1 0
BITMAP
60
30
18
00
7C
C6
FE
C0
C6
7C
ENDCHAR
STARTCHAR 0451
ENCODING 1105
SWIDTH 540 0
DWIDTH 9 0
BBX 7 8 1 0
BITMAP
6C
00
7C
C6
FE
C0
C6
7C
ENDCHAR
STARTCHAR 0452
ENCODING 1106
SWIDTH 540 0
DWIDTH 9 0
BBX 7 11 1 -2
BITMAP
60
F8
60
6C
76
66
66
66
E6
06
0C
ENDCHAR
STARTCHAR 0453
ENCODING 1107
SWIDTH 540 0
DWIDTH 9 0
BBX 7 10 1 0
BITMAP
0C
18
30
00
FE
66
60
60
60
F0
ENDCHAR
STARTCHAR 0454
ENCODING 1108
SWIDTH 540 0
DWIDTH 9 0
BBX 7 6 1 0
BITMAP
7C
C6
F0
C0
C6
7C
ENDCHAR
STARTCHAR 0455
ENCODING 1109
SWIDTH 540 0
DWIDTH 9 0
BBX 7 6 1 0
BITMAP
7C
C6
70
1C
C6
7C
ENDCHAR
STARTCHAR 0456
ENCODING 1110
SWIDTH 540 0
DWIDTH 9 0
BBX 4 9 3 0
BITMAP
60
60
00
E0
60
60
60
60
F0
ENDCHAR
STARTCHAR 0457
ENCODING 1111
SWIDTH 540 0
DWIDTH 9 0
BBX 6 8 1 0
BITMAP
CC
00
70
30
30
30
30
78
ENDCHAR
STARTCHAR 0458
ENCODING 1112
SWIDTH 540 0
DWIDTH 9 0
BBX 6 11 1 -2
BITMAP
0C
0C
00
1C
0C
0C
0C
0C
CC
CC
78
ENDCHAR
STARTCHAR 0459
ENCODING 1113
SWIDTH 540 0
DWIDTH 9 0
BBX 8 6 0 0
BITMAP
FC
D8
DE
DB
DB
DE
ENDCHAR
STARTCHAR 045A
ENCODING 1114
SWIDTH 540 0
DWIDTH 9 0
BBX 8 6 0 0
BITMAP
D8
D8
FE
DB
DB
DE
ENDCHAR
STARTCHAR 045B
ENCODING 1115
SWIDTH 540 0
DWIDTH 9 0
BBX 7 9 1 0
BITMAP
60
F8
60
7C
66
66
66
66
E6
ENDCHAR
STARTCHAR 045C
ENCODING 1116
SWIDTH 540 0
DWIDTH 9 0
BBX 7 10 1 0
BITMAP
0C
18
30
00
E6
6C
78
78
6C
E6
ENDCHAR
STARTCHAR 045D
ENCODING 1117
SWIDTH 540 0
DWIDTH 9 0
BBX 7 10 1 0
BITMAP
60
30
18
00
C6
CE
DE
F6
E6
C6
ENDCHAR
STARTCHAR 045E
ENCODING 1118
SWIDTH 540 0
DWIDTH 9 0
BBX 7 11 1 -2
BITMAP
28
38
10
C6
C6
C6
6C
38
30
60
C0
ENDCHAR
STARTCHAR 045F
ENCODING 1119
SWIDTH 540 0
DWIDTH 9 0
BBX 8 8 0 -2
BITMAP
E7
66
66
66
66
FF
18
18
ENDCHAR
STARTCHAR 0490
ENCODING 1168
SWIDTH 540 0
DWIDTH 9 0
BBX 7 11 1 0
BITMAP
02
06
FE
60
60
60
60
60
60
60
F0
ENDCHAR
STARTCHAR 0491
ENCODING 1169
SWIDTH 540 0
DWIDTH 9 0
BBX 7 8 1 0
BITMAP
02
06
FE
60
60
60
60
F0
ENDCHAR
STARTCHAR 05BE
ENCODING 1470
SWIDTH 540 0
DWIDTH 9 0
BBX 6 1 1 8
BITMAP
FC
ENDCHAR
STARTCHAR 05D0
ENCODING 1488
SWIDTH 540 0
DWIDTH 9 0
BBX 7 9 1 0
BITMAP
C6
C6
66
76
DC
CC
C6
C6
C6
ENDCHAR
STARTCHAR 05D1
ENCODING 1489
SWIDTH 540 0
DWIDTH 9 0
BBX 7 9 1 0
BITMAP
F8
0C
0C
0C
0C
0C
0C
0C
FE
ENDCHAR
STARTCHAR 05D2
ENCODING 1490
SWIDTH 540 0
DWIDTH 9 0
BBX 6 9 1 0
BITMAP
38
0C
0C
0C
0C
0C
3C
6C
CC
ENDCHAR
STARTCHAR 05D3
ENCODING 1491
SWIDTH 540 0
DWIDTH 9 0
BBX 7 9 1 0
BITMAP
FE
0C
0C
0C
0C
0C
0C
0C
0C
ENDCHAR
STARTCHAR 05D4
ENCODING 1492
SWIDTH 540 0
DWIDTH 9 0
BBX 7 9 1 0
BITMAP
FC
06
06
06
C6
C6
C6
C6
C6
ENDCHAR
STARTCHAR 05D5
ENCODING 1493
SWIDTH 540 0
DWIDTH 9 0
BBX 4 9 2 0
BITMAP
E0
30
30
30
30
30
30
30
30
ENDCHAR
STARTCHAR 05D6
ENCODING 1494
SWIDTH 540 0
DWIDTH 9 0
BBX 6 9 1 0
BITMAP
FC
30
30
30
18
18
18
30
60
ENDCHAR
STARTCHAR 05D7
ENCODING 1495
SWIDTH 540 0
DWIDTH 9 0
BBX 7 9 1 0
BITMAP
FC
C6
C6
C6
C6
C6
C6
C6
C6
ENDCHAR
STARTCHAR 05D8
ENCODING 1496
SWIDTH 540 0
DWIDTH 9 0
BBX 7 9 1 0
BITMAP
CC
D6
D6
C6
C6
C6
C6
CC
F8
ENDCHAR
STARTCHAR 05D9
ENCODING 1497
SWIDTH 540 0
DWIDTH 9 0
BBX 5 5 2 4
BITMAP
F0
18
18
18
30
ENDCHAR
STARTCHAR 05DA
ENCODING 1498
SWIDTH 540 0
DWIDTH 9 0
BBX 6 11 1 -2
BITMAP
FC
0C
0C
18
18
18
18
18
18
18
18
ENDCHAR
STARTCHAR 05DB
ENCODING 1499
SWIDTH 540 0
DWIDTH 9 0
BBX 6 9 1 0
BITMAP
FC
0C
0C
0C
0C
0C
0C
0C
F8
ENDCHAR
STARTCHAR 05DC
ENCODING 1500
SWIDTH 540 0
DWIDTH 9 0
BBX 7 12 1 0
BITMAP
C0
C0
C0
FC
06
06
06
06
06
0C
18
30
ENDCHAR
STARTCHAR 05DD
ENCODING 1501
SWIDTH 540 0
DWIDTH 9 0
BBX 7 9 1 0
BITMAP
FC
66
C6
C6
C6
C6
C6
C6
FE
ENDCHAR
STARTCHAR 05DE
ENCODING 1502
SWIDTH 540 0
DWIDTH 9 0
BBX 7 9 1 0
BITMAP
DE
7E
66
C6
C6
C6
C6
C6
DE
ENDCHAR
STARTCHAR 05DF
ENCODING 1503
SWIDTH 540 0
DWIDTH 9 0
BBX 4 11 2 -2
BITMAP
E0
30
30
60
60
60
60
60
60
60
60
ENDCHAR
STARTCHAR 05E0
ENCODING 1504
SWIDTH 540 0
DWIDTH 9 0
BBX 5 9 1 0
BITMAP
30
18
18
18
18
18
18
18
F8
ENDCHAR
STARTCHAR 05E1
ENCODING 1505
SWIDTH 540 0
DWIDTH 9 0
BBX 7 9 1 0
BITMAP
FC
66
C6
C6
C6
C6
C6
6C
38
ENDCHAR
STARTCHAR 05E2
ENCODING 1506
SWIDTH 540 0
DWIDTH 9 0
BBX 8 9 1 0
BITMAP
67
67
67
67
67
67
67
6C
F8
ENDCHAR
STARTCHAR 05E3
ENCODING 1507
SWIDTH 540 0
DWIDTH 9 0
BBX 7 11 1 -2
BITMAP
FC
66
66
66
76
06
06
06
06
06
06
ENDCHAR
STARTCHAR 05E4
ENCODING 1508
SWIDTH 540 0
DWIDTH 9 0
BBX 7 9 1 0
BITMAP
FC
66
66
66
76
06
06
06
FE
ENDCHAR
STARTCHAR 05E5
ENCODING 1509
SWIDTH 540 0
DWIDTH 9 0
BBX 7 11 1 -2
BITMAP
C6
C6
66
6C
38
30
30
30
30
30
30
ENDCHAR
STARTCHAR 05E6
ENCODING 1510
SWIDTH 540 0
DWIDTH 9 0
BBX 7 9 1 0
BITMAP
C6
C6
66
36
1C
0C
06
06
FE
ENDCHAR
STARTCHAR 05E7
ENCODING 1511
SWIDTH 540 0
DWIDTH 9 0
BBX 7 11 1 -2
BITMAP
FC
06
06
06
66
66
6C
68
60
60
60
ENDCHAR
STARTCHAR 05E8
ENCODING 1512
SWIDTH 540 0
DWIDTH 9 0
BBX 7 9 1 0
BITMAP
FC
06
06
06
06
06
06
06
06
ENDCHAR
STARTCHAR 05E9
ENCODING 1513
SWIDTH 540 0
DWIDTH 9 0
BBX 7 9 1 0
BITMAP
D6
D6
D6
D6
D6
E6
C6
CC
F8
ENDCHAR
STARTCHAR 05EA
ENCODING 1514
SWIDTH 540 0
DWIDTH 9 0
BBX 7 9 1 0
BITMAP
FC
66
66
66
66
66
66
66
E6
ENDCHAR
STARTCHAR 05F0
ENCODING 1520
SWIDTH 540 0
DWIDTH 9 0
BBX 7 9 1 0
BITMAP
CC
66
66
66
66
66
66
66
66
ENDCHAR
STARTCHAR 05F1
ENCODING 1521
SWIDTH 540 0
DWIDTH 9 0
BBX 7 9 1 0
BITMAP
CC
66
66
66
06
06
06
06
06
ENDCHAR
STARTCHAR 05F2
ENCODING 1522
SWIDTH 540 0
DWIDTH 9 0
BBX 7 4 1 5
BITMAP
CC
66
66
66
ENDCHAR
STARTCHAR 05F3
ENCODING 1523
SWIDTH 540 0
DWIDTH 9 0
BBX 3 4 2 6
BITMAP
60
60
60
C0
ENDCHAR
STARTCHAR 05F4
ENCODING 1524
SWIDTH 540 0
DWIDTH 9 0
BBX 8 4 0 6
BITMAP
67
67
67
CC
ENDCHAR
STARTCHAR 1D1B
ENCODING 7451
SWIDTH 540 0
DWIDTH 9 0
BBX 7 7 1 0
BITMAP
76
DC
18
18
18
18
18
ENDCHAR
STARTCHAR 1D26
ENCODING 7462
SWIDTH 540 0
DWIDTH 9 0
BBX 7 9 1 0
BITMAP
FE
C6
C6
C0
C0
C0
C0
C0
C0
ENDCHAR
STARTCHAR 1D28
ENCODING 7464
SWIDTH 540 0
DWIDTH 9 0
BBX 7 7 1 0
BITMAP
FE
6C
6C
6C
6C
6C
6C
ENDCHAR
STARTCHAR 1E80
ENCODING 7808
SWIDTH 540 0
DWIDTH 9 0
BBX 8 11 0 0
BITMAP
60
30
18
C3
C3
C3
DB
DB
FF
66
66
ENDCHAR
STARTCHAR 1E81
ENCODING 7809
SWIDTH 540 0
DWIDTH 9 0
BBX 8 10 0 0
BITMAP
60
30
18
00
C3
C3
DB
DB
FF
66
ENDCHAR
STARTCHAR 1E82
ENCODING 7810
SWIDTH 540 0
DWIDTH 9 0
BBX 8 11 0 0
BITMAP
06
0C
18
C3
C3
C3
DB
DB
FF
66
66
ENDCHAR
STARTCHAR 1E83
ENCODING 7811
SWIDTH 540 0
DWIDTH 9 0
BBX 8 10 0 0
BITMAP
06
0C
18
00
C3
C3
DB
DB
FF
66
ENDCHAR
STARTCHAR 1E84
ENCODING 7812
SWIDTH 540 0
DWIDTH 9 0
BBX 8 11 0 0
BITMAP
C3
C3
00
C3
C3
C3
DB
DB
FF
66
66
ENDCHAR
STARTCHAR 1E85
ENCODING 7813
SWIDTH 540 0
DWIDTH 9 0
BBX 8 9 0 0
BITMAP
C3
C3
00
C3
C3
DB
DB
FF
66
ENDCHAR
STARTCHAR 1E9F
ENCODING 7839
SWIDTH 540 0
DWIDTH 9 0
BBX 6 9 1 0
BITMAP
3C
60
30
18
7C
CC
CC
CC
78
ENDCHAR
STARTCHAR 1EF2
ENCODING 7922
SWIDTH 540 0
DWIDTH 9 0
BBX 8 11 0 0
BITMAP
60
30
18
C3
C3
66
3C
18
18
18
3C
ENDCHAR
STARTCHAR 1EF3
ENCODING 7923
SWIDTH 540 0
DWIDTH 9 0
BBX 7 12 1 -2
BITMAP
60
30
18
00
C6
C6
C6
C6
7E
06
0C
F8
ENDCHAR
STARTCHAR 2010
ENCODING 8208
SWIDTH 540 0
DWIDTH 9 0
BBX 6 1 1 4
BITMAP
FC
ENDCHAR
STARTCHAR 2012
ENCODING 8210
SWIDTH 540 0
DWIDTH 9 0
BBX 5 1 2 4
BITMAP
F8
ENDCHAR
STARTCHAR 2013
ENCODING 8211
SWIDTH 540 0
DWIDTH 9 0
BBX 5 1 2 4
BITMAP
F8
ENDCHAR
STARTCHAR 2014
ENCODING 8212
SWIDTH 540 0
DWIDTH 9 0
BBX 8 1 0 4
BITMAP
FF
ENDCHAR
STARTCHAR 2015
ENCODING 8213
SWIDTH 540 0
DWIDTH 9 0
BBX 8 1 0 4
BITMAP
FF
ENDCHAR
STARTCHAR 2017
ENCODING 8215
SWIDTH 540 0
DWIDTH 9 0
BBX 8 3 0 -2
BITMAP
FF
00
FF
ENDCHAR
STARTCHAR 2018
ENCODING 8216
SWIDTH 540 0
DWIDTH 9 0
BBX 3 4 3 6
BITMAP
60
C0
C0
C0
ENDCHAR
STARTCHAR 2019
ENCODING 8217
SWIDTH 540 0
DWIDTH 9 0
BBX 3 4 3 6
BITMAP
60
60
60
C0
ENDCHAR
STARTCHAR 201A
ENCODING 8218
SWIDTH 540 0
DWIDTH 9 0
BBX 3 4 3 -2
BITMAP
60
60
60
C0
ENDCHAR
STARTCHAR 201B
ENCODING 8219
SWIDTH 540 0
DWIDTH 9 0
BBX 3 4 3 6
BITMAP
C0
C0
C0
60
ENDCHAR
STARTCHAR 201C
ENCODING 8220
SWIDTH 540 0
DWIDTH 9 0
BBX 7 4 1 6
BITMAP
66
CC
CC
CC
ENDCHAR
STARTCHAR 201D
ENCODING 8221
SWIDTH 540 0
DWIDTH 9 0
BBX 7 4 1 6
BITMAP
66
66
66
CC
ENDCHAR
STARTCHAR 201E
ENCODING 8222
SWIDTH 540 0
DWIDTH 9 0
BBX 7 4 1 -2
BITMAP
66
66
66
CC
ENDCHAR
STARTCHAR 201F
ENCODING 8223
SWIDTH 540 0
DWIDTH 9 0
BBX 7 4 1 6
BITMAP
CC
CC
CC
66
ENDCHAR
STARTCHAR 2020
ENCODING 8224
SWIDTH 540 0
DWIDTH 9 0
BBX 6 11 1 -1
BITMAP
30
30
30
FC
30
30
30
30
30
30
30
ENDCHAR
STARTCHAR 2021
ENCODING 8225
SWIDTH 540 0
DWIDTH 9 0
BBX 6 11 1 -1
BITMAP
30
30
30
FC
30
30
30
FC
30
30
30
ENDCHAR
STARTCHAR 2022
ENCODING 8226
SWIDTH 540 0
DWIDTH 9 0
BBX 4 4 2 2
BITMAP
60
F0
F0
60
ENDCHAR
STARTCHAR 2026
ENCODING 8230
SWIDTH 540 0
DWIDTH 9 0
BBX 8 2 0 0
BITMAP
DB
DB
ENDCHAR
STARTCHAR 2027
ENCODING 8231
SWIDTH 540 0
DWIDTH 9 0
BBX 2 2 3 3
BITMAP
C0
C0
ENDCHAR
STARTCHAR 2030
ENCODING 8240
SWIDTH 540 0
DWIDTH 9 0
BBX 8 7 0 0
BITMAP
C6
CC
18
30
60
DB
1B
ENDCHAR
STARTCHAR 2032
ENCODING 8242
SWIDTH 540 0
DWIDTH 9 0
BBX 4 3 2 7
BITMAP
30
60
C0
ENDCHAR
STARTCHAR 2033
ENCODING 8243
SWIDTH 540 0
DWIDTH 9 0
BBX 7 3 1 7
BITMAP
36
6C
D8
ENDCHAR
STARTCHAR 2035
ENCODING 8245
SWIDTH 540 0
DWIDTH 9 0
BBX 4 3 2 7
BITMAP
C0
60
30
ENDCHAR
STARTCHAR 2039
ENCODING 8249
SWIDTH 540 0
DWIDTH 9 0
BBX 4 5 2 2
BITMAP
30
60
C0
60
30
ENDCHAR
STARTCHAR 203A
ENCODING 8250
SWIDTH 540 0
DWIDTH 9 0
BBX 4 5 2 2
BITMAP
C0
60
30
60
C0
ENDCHAR
STARTCHAR 203C
ENCODING 8252
SWIDTH 540 0
DWIDTH 9 0
BBX 6 9 2 0
BITMAP
CC
CC
CC
CC
CC
CC
00
CC
CC
ENDCHAR
STARTCHAR 203E
ENCODING 8254
SWIDTH 540 0
DWIDTH 9 0
BBX 8 1 0 9
BITMAP
FF
ENDCHAR
STARTCHAR 203F
ENCODING 8255
SWIDTH 540 0
DWIDTH 9 0
BBX 8 2 0 -2
BITMAP
C3
7E
ENDCHAR
STARTCHAR 2040
ENCODING 8256
SWIDTH 540 0
DWIDTH 9 0
BBX 8 2 0 8
BITMAP
7E
C3
ENDCHAR
STARTCHAR 2044
ENCODING 8260
SWIDTH 540 0
DWIDTH 9 0
BBX 7 8 1 1
BITMAP
02
06
0C
18
30
60
C0
80
ENDCHAR
STARTCHAR 2054
ENCODING 8276
SWIDTH 540 0
DWIDTH 9 0
BBX 8 2 0 -2
BITMAP
7E
C3
ENDCHAR
STARTCHAR 2074
ENCODING 8308
SWIDTH 540 0
DWIDTH 9 0
BBX 6 6 0 4
BITMAP
18
38
58
FC
18
18
ENDCHAR
STARTCHAR 2075
ENCODING 8309
SWIDTH 540 0
DWIDTH 9 0
BBX 6 6 0 4
BITMAP
FC
C0
F8
0C
CC
78
ENDCHAR
STARTCHAR 2076
ENCODING 8310
SWIDTH 540 0
DWIDTH 9 0
BBX 6 6 0 4
BITMAP
38
60
F8
CC
CC
78
ENDCHAR
STARTCHAR 2077
ENCODING 8311
SWIDTH 540 0
DWIDTH 9 0
BBX 5 6 0 4
BITMAP
F8
98
30
60
60
60
ENDCHAR
STARTCHAR 2078
ENCODING 8312
SWIDTH 540 0
DWIDTH 9 0
BBX 6 6 0 4
BITMAP
78
CC
78
CC
CC
78
ENDCHAR
STARTCHAR 2079
ENCODING 8313
SWIDTH 540 0
DWIDTH 9 0
BBX 6 6 0 4
BITMAP
78
CC
CC
7C
18
70
ENDCHAR
STARTCHAR 207A
ENCODING 8314
SWIDTH 540 0
DWIDTH 9 0
BBX 6 5 0 5
BITMAP
30
30
FC
30
30
ENDCHAR
STARTCHAR 207B
ENCODING 8315
SWIDTH 540 0
DWIDTH 9 0
BBX 5 1 1 7
BITMAP
F8
ENDCHAR
STARTCHAR 207F
ENCODING 8319
SWIDTH 540 0
DWIDTH 9 0
BBX 6 6 0 4
BITMAP
D8
6C
6C
6C
6C
6C
ENDCHAR
STARTCHAR 2081
ENCODING 8321
SWIDTH 540 0
DWIDTH 9 0
BBX 4 6 1 -2
BITMAP
60
E0
60
60
60
F0
ENDCHAR
STARTCHAR 2082
ENCODING 8322
SWIDTH 540 0
DWIDTH 9 0
BBX 5 6 0 -2
BITMAP
70
D8
30
60
C8
F8
ENDCHAR
STARTCHAR 2083
ENCODING 8323
SWIDTH 540 0
DWIDTH 9 0
BBX 6 6 0 -2
BITMAP
FC
18
30
18
CC
78
ENDCHAR
STARTCHAR 2084
ENCODING 8324
SWIDTH 540 0
DWIDTH 9 0
BBX 6 6 0 -2
BITMAP
18
38
58
FC
18
18
ENDCHAR
STARTCHAR 2085
ENCODING 8325
SWIDTH 540 0
DWIDTH 9 0
BBX 6 6 0 -2
BITMAP
FC
C0
F8
0C
CC
78
ENDCHAR
STARTCHAR 2086
ENCODING 8326
SWIDTH 540 0
DWIDTH 9 0
BBX 6 6 0 -2
BITMAP
38
60
F8
CC
CC
78
ENDCHAR
STARTCHAR 2087
ENCODING 8327
SWIDTH 540 0
DWIDTH 9 0
BBX 5 6 0 -2
BITMAP
F8
98
30
60
60
60
ENDCHAR
STARTCHAR 2088
ENCODING 8328
SWIDTH 540 0
DWIDTH 9 0
BBX 6 6 0 -2
BITMAP
78
CC
78
CC
CC
78
ENDCHAR
STARTCHAR 2089
ENCODING 8329
SWIDTH 540 0
DWIDTH 9 0
BBX 6 6 0 -2
BITMAP
78
CC
CC
7C
18
70
ENDCHAR
STARTCHAR 208A
ENCODING 8330
SWIDTH 540 0
DWIDTH 9 0
BBX 6 5 0 -2
BITMAP
30
30
FC
30
30
ENDCHAR
STARTCHAR 208B
ENCODING 8331
SWIDTH 540 0
DWIDTH 9 0
BBX 5 1 1 0
BITMAP
F8
ENDCHAR
STARTCHAR 20A3
ENCODING 8355
SWIDTH 540 0
DWIDTH 9 0
BBX 7 10 1 -1
BITMAP
FE
66
62
68
78
68
60
F0
60
60
ENDCHAR
STARTCHAR 20A4
ENCODING 8356
SWIDTH 540 0
DWIDTH 9 0
BBX 7 10 1 0
BITMAP
38
6C
64
60
F0
60
F0
60
E6
FC
ENDCHAR
STARTCHAR 20A7
ENCODING 8359
SWIDTH 540 0
DWIDTH 9 0
BBX 8 10 0 0
BITMAP
FC
66
66
7C
62
66
6F
66
66
F3
ENDCHAR
STARTCHAR 20AA
ENCODING 8362
SWIDTH 540 0
DWIDTH 9 0
BBX 7 7 1 1
BITMAP
FA
8A
AA
AA
AA
A2
BE
ENDCHAR
STARTCHAR 20AC
ENCODING 8364
SWIDTH 540 0
DWIDTH 9 0
BBX 8 9 0 0
BITMAP
1E
33
60
FE
60
FC
60
33
1E
ENDCHAR
STARTCHAR 2105
ENCODING 8453
SWIDTH 540 0
DWIDTH 9 0
BBX 8 13 0 -2
BITMAP
70
D8
C0
DB
76
0C
18
30
6E
DB
1B
1B
0E
ENDCHAR
STARTCHAR 2113
ENCODING 8467
SWIDTH 540 0
DWIDTH 9 0
BBX 6 9 2 0
BITMAP
20
70
D8
D8
D8
70
60
B4
18
ENDCHAR
STARTCHAR 2116
ENCODING 8470
SWIDTH 540 0
DWIDTH 9 0
BBX 8 9 0 0
BITMAP
92
95
95
D5
F2
B0
97
90
90
ENDCHAR
STARTCHAR 2122
ENCODING 8482
SWIDTH 540 0
DWIDTH 9 0
BBX 8 5 0 5
BITMAP
F1
5B
55
51
51
ENDCHAR
STARTCHAR 2126
ENCODING 8486
SWIDTH 540 0
DWIDTH 9 0
BBX 7 9 1 0
BITMAP
38
6C
C6
C6
C6
6C
6C
6C
EE
ENDCHAR
STARTCHAR 212E
ENCODING 8494
SWIDTH 540 0
DWIDTH 9 0
BBX 7 6 1 0
BITMAP
7C
C6
FE
C0
C6
7C
ENDCHAR
STARTCHAR 2150
ENCODING 8528
SWIDTH 540 0
DWIDTH 9 0
BBX 8 12 0 -2
BITMAP
60
E0
63
66
6C
18
30
6F
C3
06
0C
0C
ENDCHAR
STARTCHAR 2151
ENCODING 8529
SWIDTH 540 0
DWIDTH 9 0
BBX 8 12 0 -2
BITMAP
60
E0
63
66
6C
18
30
6E
DB
0F
03
0E
ENDCHAR
STARTCHAR 2153
ENCODING 8531
SWIDTH 540 0
DWIDTH 9 0
BBX 8 12 0 -2
BITMAP
60
E0
63
66
6C
18
30
6F
C3
0E
03
0E
ENDCHAR
STARTCHAR 2154
ENCODING 8532
SWIDTH 540 0
DWIDTH 9 0
BBX 8 12 0 -2
BITMAP
E0
30
63
C6
FC
18
30
6F
C3
0E
03
0E
ENDCHAR
STARTCHAR 2155
ENCODING 8533
SWIDTH 540 0
DWIDTH 9 0
BBX 8 12 0 -2
BITMAP
60
E0
63
66
6C
18
30
6F
CC
0E
03
0E
ENDCHAR
STARTCHAR 2156
ENCODING 8534
SWIDTH 540 0
DWIDTH 9 0
BBX 8 12 0 -2
BITMAP
E0
30
63
C6
FC
18
30
6F
CC
0E
03
0E
ENDCHAR
STARTCHAR 2157
ENCODING 8535
SWIDTH 540 0
DWIDTH 9 0
BBX 8 12 0 -2
BITMAP
F0
30
E3
36
EC
18
30
6F
CC
0E
03
0E
ENDCHAR
STARTCHAR 2158
ENCODING 8536
SWIDTH 540 0
DWIDTH 9 0
BBX 8 12 0 -2
BITMAP
30
70
F3
F6
3C
18
30
6F
CC
0E
03
0E
ENDCHAR
STARTCHAR 2159
ENCODING 8537
SWIDTH 540 0
DWIDTH 9 0
BBX 8 12 0 -2
BITMAP
60
E0
63
66
6C
18
30
6E
D8
1E
1B
0E
ENDCHAR
STARTCHAR 215A
ENCODING 8538
SWIDTH 540 0
DWIDTH 9 0
BBX 8 12 0 -2
BITMAP
F0
C0
E3
36
EC
18
30
6E
D8
1E
1B
0E
ENDCHAR
STARTCHAR 215B
ENCODING 8539
SWIDTH 540 0
DWIDTH 9 0
BBX 8 12 0 -2
BITMAP
60
E0
63
66
6C
18
30
6E
DB
0E
1B
0E
ENDCHAR
STARTCHAR 215C
ENCODING 8540
SWIDTH 540 0
DWIDTH 9 0
BBX 8 12 0 -2
BITMAP
F0
30
E3
36
EC
18
30
6E
DB
0E
1B
0E
ENDCHAR
STARTCHAR 215D
ENCODING 8541
SWIDTH 540 0
DWIDTH 9 0
BBX 8 12 0 -2
BITMAP
F0
C0
E3
36
EC
18
30
6E
DB
0E
1B
0E
ENDCHAR
STARTCHAR 215E
ENCODING 8542
SWIDTH 540 0
DWIDTH 9 0
BBX 8 12 0 -2
BITMAP
F8
18
33
66
6C
18
30
6E
DB
0E
1B
0E
ENDCHAR
STARTCHAR 2190
ENCODING 8592
SWIDTH 540 0
DWIDTH 9 0
BBX 7 5 1 2
BITMAP
30
60
FE
60
30
ENDCHAR
STARTCHAR 2191
ENCODING 8593
SWIDTH 540 0
DWIDTH 9 0
BBX 6 9 1 0
BITMAP
30
78
FC
30
30
30
30
30
30
ENDCHAR
STARTCHAR 2192
ENCODING 8594
SWIDTH 540 0
DWIDTH 9 0
BBX 7 5 1 2
BITMAP
18
0C
FE
0C
18
ENDCHAR
STARTCHAR 2193
ENCODING 8595
SWIDTH 540 0
DWIDTH 9 0
BBX 6 9 1 0
BITMAP
30
30
30
30
30
30
FC
78
30
ENDCHAR
STARTCHAR 2194
ENCODING 8596
SWIDTH 540 0
DWIDTH 9 0
BBX 8 5 0 2
BITMAP
24
66
FF
66
24
ENDCHAR
STARTCHAR 2195
ENCODING 8597
SWIDTH 540 0
DWIDTH 9 0
BBX 6 9 1 0
BITMAP
30
78
FC
30
30
30
FC
78
30
ENDCHAR
STARTCHAR 21A8
ENCODING 8616
SWIDTH 540 0
DWIDTH 9 0
BBX 6 10 1 -1
BITMAP
30
78
FC
30
30
30
FC
78
30
FC
ENDCHAR
STARTCHAR 2202
ENCODING 8706
SWIDTH 540 0
DWIDTH 9 0
BBX 7 9 1 0
BITMAP
38
6C
06
06
3E
66
C6
CC
78
ENDCHAR
STARTCHAR 2205
ENCODING 8709
SWIDTH 540 0
DWIDTH 9 0
BBX 8 9 0 0
BITMAP
03
06
7E
DB
DB
F3
7E
60
C0
ENDCHAR
STARTCHAR 2206
ENCODING 8710
SWIDTH 540 0
DWIDTH 9 0
BBX 7 7 1 1
BITMAP
10
38
6C
C6
C6
C6
FE
ENDCHAR
STARTCHAR 2208
ENCODING 8712
SWIDTH 540 0
DWIDTH 9 0
BBX 5 9 1 0
BITMAP
38
60
C0
C0
F8
C0
C0
60
38
ENDCHAR
STARTCHAR 220F
ENCODING 8719
SWIDTH 540 0
DWIDTH 9 0
BBX 7 10 0 -1
BITMAP
FE
C6
C6
C6
C6
C6
C6
C6
C6
C6
ENDCHAR
STARTCHAR 2211
ENCODING 8721
SWIDTH 540 0
DWIDTH 9 0
BBX 7 9 1 0
BITMAP
FE
C6
60
30
18
30
60
C6
FE
ENDCHAR
STARTCHAR 2212
ENCODING 8722
SWIDTH 540 0
DWIDTH 9 0
BBX 8 1 0 4
BITMAP
FF
ENDCHAR
STARTCHAR 2215
ENCODING 8725
SWIDTH 540 0
DWIDTH 9 0
BBX 7 8 1 1
BITMAP
02
06
0C
18
30
60
C0
80
ENDCHAR
STARTCHAR 2219
ENCODING 8729
SWIDTH 540 0
DWIDTH 9 0
BBX 2 2 3 3
BITMAP
C0
C0
ENDCHAR
STARTCHAR 221A
ENCODING 8730
SWIDTH 540 0
DWIDTH 9 0
BBX 8 10 0 0
BITMAP
0F
0C
0C
0C
0C
0C
EC
6C
3C
1C
ENDCHAR
STARTCHAR 221E
ENCODING 8734
SWIDTH 540 0
DWIDTH 9 0
BBX 8 4 0 2
BITMAP
7E
DB
DB
7E
ENDCHAR
STARTCHAR 221F
ENCODING 8735
SWIDTH 540 0
DWIDTH 9 0
BBX 7 4 1 2
BITMAP
C0
C0
C0
FE
ENDCHAR
STARTCHAR 2229
ENCODING 8745
SWIDTH 540 0
DWIDTH 9 0
BBX 7 8 1 0
BITMAP
7C
C6
C6
C6
C6
C6
C6
C6
ENDCHAR
STARTCHAR 222B
ENCODING 8747
SWIDTH 540 0
DWIDTH 9 0
BBX 8 14 0 -3
BITMAP
0E
1B
1B
18
18
18
18
18
18
18
18
D8
D8
70
ENDCHAR
STARTCHAR 2248
ENCODING 8776
SWIDTH 540 0
DWIDTH 9 0
BBX 7 5 1 2
BITMAP
76
DC
00
76
DC
ENDCHAR
STARTCHAR 2260
ENCODING 8800
SWIDTH 540 0
DWIDTH 9 0
BBX 7 8 1 0
BITMAP
06
0C
FE
18
30
FE
60
C0
ENDCHAR
STARTCHAR 2261
ENCODING 8801
SWIDTH 540 0
DWIDTH 9 0
BBX 7 7 1 1
BITMAP
FE
00
00
FE
00
00
FE
ENDCHAR
STARTCHAR 2264
ENCODING 8804
SWIDTH 540 0
DWIDTH 9 0
BBX 6 9 1 0
BITMAP
18
30
60
C0
60
30
18
00
FC
ENDCHAR
STARTCHAR 2265
ENCODING 8805
SWIDTH 540 0
DWIDTH 9 0
BBX 6 9 1 0
BITMAP
60
30
18
0C
18
30
60
00
FC
ENDCHAR
STARTCHAR 2299
ENCODING 8857
SWIDTH 540 0
DWIDTH 9 0
BBX 8 9 0 0
BITMAP
7E
C3
C3
DB
DB
DB
C3
C3
7E
ENDCHAR
STARTCHAR 2300
ENCODING 8960
SWIDTH 540 0
DWIDTH 9 0
BBX 7 9 1 0
BITMAP
38
6C
C6
CE
D6
E6
C6
6C
38
ENDCHAR
STARTCHAR 2302
ENCODING 8962
SWIDTH 540 0
DWIDTH 9 0
BBX 7 6 1 1
BITMAP
10
38
6C
C6
C6
FE
ENDCHAR
STARTCHAR 2310
ENCODING 8976
SWIDTH 540 0
DWIDTH 9 0
BBX 7 4 1 1
BITMAP
FE
C0
C0
C0
ENDCHAR
STARTCHAR 2320
ENCODING 8992
SWIDTH 540 0
DWIDTH 9 0
BBX 5 12 3 -3
BITMAP
70
D8
D8
C0
C0
C0
C0
C0
C0
C0
C0
C0
ENDCHAR
STARTCHAR 2321
ENCODING 8993
SWIDTH 540 0
DWIDTH 9 0
BBX 5 11 0 0
BITMAP
18
18
18
18
18
18
18
18
D8
D8
70
ENDCHAR
STARTCHAR 2500
ENCODING 9472
SWIDTH 540 0
DWIDTH 9 0
BBX 9 1 0 3
BITMAP
FF80
ENDCHAR
STARTCHAR 2502
ENCODING 9474
SWIDTH 540 0
DWIDTH 9 0
BBX 2 15 3 -3
BITMAP
C0
C0
C0
C0
C0
C0
C0
C0
C0
C0
C0
C0
C0
C0
C0
ENDCHAR
STARTCHAR 250C
ENCODING 9484
SWIDTH 540 0
DWIDTH 9 0
BBX 6 7 3 -3
BITMAP
FC
C0
C0
C0
C0
C0
C0
ENDCHAR
STARTCHAR 2510
ENCODING 9488
SWIDTH 540 0
DWIDTH 9 0
BBX 5 7 0 -3
BITMAP
F8
18
18
18
18
18
18
ENDCHAR
STARTCHAR 2514
ENCODING 9492
SWIDTH 540 0
DWIDTH 9 0
BBX 6 8 3 3
BITMAP
C0
C0
C0
C0
C0
C0
C0
FC
ENDCHAR
STARTCHAR 2518
ENCODING 9496
SWIDTH 540 0
DWIDTH 9 0
BBX 5 8 0 3
BITMAP
18
18
18
18
18
18
18
F8
ENDCHAR
STARTCHAR 251C
ENCODING 9500
SWIDTH 540 0
DWIDTH 9 0
BBX 6 15 3 -3
BITMAP
C0
C0
C0
C0
C0
C0
C0
C0
FC
C0
C0
C0
C0
C0
C0
ENDCHAR
STARTCHAR 2524
ENCODING 9508
SWIDTH 540 0
DWIDTH 9 0
BBX 5 15 0 -3
BITMAP
18
18
18
18
18
18
18
18
F8
18
18
18
18
18
18
ENDCHAR
STARTCHAR 252C
ENCODING 9516
SWIDTH 540 0
DWIDTH 9 0
BBX 9 7 0 -3
BITMAP
FF80
1800
1800
1800
1800
1800
1800
ENDCHAR
STARTCHAR 2534
ENCODING 9524
SWIDTH 540 0
DWIDTH 9 0
BBX 9 8 0 3
BITMAP
1800
1800
1800
1800
1800
1800
1800
FF80
ENDCHAR
STARTCHAR 253C
ENCODING 9532
SWIDTH 540 0
DWIDTH 9 0
BBX 9 15 0 -3
BITMAP
1800
1800
1800
1800
1800
1800
1800
1800
FF80
1800
1800
1800
1800
1800
1800
ENDCHAR
STARTCHAR 2550
ENCODING 9552
SWIDTH 540 0
DWIDTH 9 0
BBX 9 3 0 3
BITMAP
FF80
0000
FF80
ENDCHAR
STARTCHAR 2551
ENCODING 9553
SWIDTH 540 0
DWIDTH 9 0
BBX 5 15 2 -3
BITMAP
D8
D8
D8
D8
D8
D8
D8
D8
D8
D8
D8
D8
D8
D8
D8
ENDCHAR
STARTCHAR 2552
ENCODING 9554
SWIDTH 540 0
DWIDTH 9 0
BBX 6 9 3 -3
BITMAP
FC
C0
FC
C0
C0
C0
C0
C0
C0
ENDCHAR
STARTCHAR 2553
ENCODING 9555
SWIDTH 540 0
DWIDTH 9 0
BBX 7 7 2 -3
BITMAP
FE
D8
D8
D8
D8
D8
D8
ENDCHAR
STARTCHAR 2554
ENCODING 9556
SWIDTH 540 0
DWIDTH 9 0
BBX 7 9 2 -3
BITMAP
FE
C0
DE
D8
D8
D8
D8
D8
D8
ENDCHAR
STARTCHAR 2555
ENCODING 9557
SWIDTH 540 0
DWIDTH 9 0
BBX 5 9 0 -3
BITMAP
F8
18
F8
18
18
18
18
18
18
ENDCHAR
STARTCHAR 2556
ENCODING 9558
SWIDTH 540 0
DWIDTH 9 0
BBX 7 7 0 -3
BITMAP
FE
36
36
36
36
36
36
ENDCHAR
STARTCHAR 2557
ENCODING 9559
SWIDTH 540 0
DWIDTH 9 0
BBX 7 9 0 -3
BITMAP
FE
06
F6
36
36
36
36
36
36
ENDCHAR
STARTCHAR 2558
ENCODING 9560
SWIDTH 540 0
DWIDTH 9 0
BBX 6 8 3 3
BITMAP
C0
C0
C0
C0
C0
FC
C0
FC
ENDCHAR
STARTCHAR 2559
ENCODING 9561
SWIDTH 540 0
DWIDTH 9 0
BBX 7 8 2 3
BITMAP
D8
D8
D8
D8
D8
D8
D8
FE
ENDCHAR
STARTCHAR 255A
ENCODING 9562
SWIDTH 540 0
DWIDTH 9 0
BBX 7 8 2 3
BITMAP
D8
D8
D8
D8
D8
DE
C0
FE
ENDCHAR
STARTCHAR 255B
ENCODING 9563
SWIDTH 540 0
DWIDTH 9 0
BBX 5 8 0 3
BITMAP
18
18
18
18
18
F8
18
F8
ENDCHAR
STARTCHAR 255C
ENCODING 9564
SWIDTH 540 0
DWIDTH 9 0
BBX 7 8 0 3
BITMAP
36
36
36
36
36
36
36
FE
ENDCHAR
STARTCHAR 255D
ENCODING 9565
SWIDTH 540 0
DWIDTH 9 0
BBX 7 8 0 3
BITMAP
36
36
36
36
36
F6
06
FE
ENDCHAR
STARTCHAR 255E
ENCODING 9566
SWIDTH 540 0
DWIDTH 9 0
BBX 6 15 3 -3
BITMAP
C0
C0
C0
C0
C0
C0
FC
C0
FC
C0
C0
C0
C0
C0
C0
ENDCHAR
STARTCHAR 255F
ENCODING 9567
SWIDTH 540 0
DWIDTH 9 0
BBX 7 15 2 -3
BITMAP
D8
D8
D8
D8
D8
D8
D8
D8
DE
D8
D8
D8
D8
D8
D8
ENDCHAR
STARTCHAR 2560
ENCODING 9568
SWIDTH 540 0
DWIDTH 9 0
BBX 7 15 2 -3
BITMAP
D8
D8
D8
D8
D8
D8
DE
C0
DE
D8
D8
D8
D8
D8
D8
ENDCHAR
STARTCHAR 2561
ENCODING 9569
SWIDTH 540 0
DWIDTH 9 0
BBX 5 15 0 -3
BITMAP
18
18
18
18
18
18
F8
18
F8
18
18
18
18
18
18
ENDCHAR
STARTCHAR 2562
ENCODING 9570
SWIDTH 540 0
DWIDTH 9 0
BBX 7 15 0 -3
BITMAP
36
36
36
36
36
36
36
36
F6
36
36
36
36
36
36
ENDCHAR
STARTCHAR 2563
ENCODING 9571
SWIDTH 540 0
DWIDTH 9 0
BBX 7 15 0 -3
BITMAP
36
36
36
36
36
36
F6
06
F6
36
36
36
36
36
36
ENDCHAR
STARTCHAR 2564
ENCODING 9572
SWIDTH 540 0
DWIDTH 9 0
BBX 9 9 0 -3
BITMAP
FF80
0000
FF80
1800
1800
1800
1800
1800
1800
ENDCHAR
STARTCHAR 2565
ENCODING 9573
SWIDTH 540 0
DWIDTH 9 0
BBX 9 7 0 -3
BITMAP
FF80
3600
3600
3600
3600
3600
3600
ENDCHAR
STARTCHAR 2566
ENCODING 9574
SWIDTH 540 0
DWIDTH 9 0
BBX 9 9 0 -3
BITMAP
FF80
0000
F780
3600
3600
3600
3600
3600
3600
ENDCHAR
STARTCHAR 2567
ENCODING 9575
SWIDTH 540 0
DWIDTH 9 0
BBX 9 8 0 3
BITMAP
1800
1800
1800
1800
1800
FF80
0000
FF80
ENDCHAR
STARTCHAR 2568
ENCODING 9576
SWIDTH 540 0
DWIDTH 9 0
BBX 9 8 0 3
BITMAP
3600
3600
3600
3600
3600
3600
3600
FF80
ENDCHAR
STARTCHAR 2569
ENCODING 9577
SWIDTH 540 0
DWIDTH 9 0
BBX 9 8 0 3
BITMAP
3600
3600
3600
3600
3600
F780
0000
FF80
ENDCHAR
STARTCHAR 256A
ENCODING 9578
SWIDTH 540 0
DWIDTH 9 0
BBX 9 15 0 -3
BITMAP
1800
1800
1800
1800
1800
1800
FF80
1800
FF80
1800
1800
1800
1800
1800
1800
ENDCHAR
STARTCHAR 256B
ENCODING 9579
SWIDTH 540 0
DWIDTH 9 0
BBX 9 15 0 -3
BITMAP
3600
3600
3600
3600
3600
3600
3600
3600
FF80
3600
3600
3600
3600
3600
3600
ENDCHAR
STARTCHAR 256C
ENCODING 9580
SWIDTH 540 0
DWIDTH 9 0
BBX 9 14 0 -3
BITMAP
3600
3600
3600
3600
3600
F780
0000
F780
3600
3600
3600
3600
3600
3600
ENDCHAR
STARTCHAR 2580
ENCODING 9600
SWIDTH 540 0
DWIDTH 9 0
BBX 9 7 0 4
BITMAP
FF80
FF80
FF80
FF80
FF80
FF80
FF80
ENDCHAR
STARTCHAR 2581
ENCODING 9601
SWIDTH 540 0
DWIDTH 9 0
BBX 9 2 0 -2
BITMAP
FF80
FF80
ENDCHAR
STARTCHAR 2584
ENCODING 9604
SWIDTH 540 0
DWIDTH 9 0
BBX 9 7 0 -3
BITMAP
FF80
FF80
FF80
FF80
FF80
FF80
FF80
ENDCHAR
STARTCHAR 2588
ENCODING 9608
SWIDTH 540 0
DWIDTH 9 0
BBX 9 15 0 -3
BITMAP
FF80
FF80
FF80
FF80
FF80
FF80
FF80
FF80
FF80
FF80
FF80
FF80
FF80
FF80
FF80
ENDCHAR
STARTCHAR 258C
ENCODING 9612
SWIDTH 540 0
DWIDTH 9 0
BBX 4 15 0 -3
BITMAP
F0
F0
F0
F0
F0
F0
F0
F0
F0
F0
F0
F0
F0
F0
F0
ENDCHAR
STARTCHAR 2590
ENCODING 9616
SWIDTH 540 0
DWIDTH 9 0
BBX 5 15 4 -3
BITMAP
F8
F8
F8
F8
F8
F8
F8
F8
F8
F8
F8
F8
F8
F8
F8
ENDCHAR
STARTCHAR 2591
ENCODING 9617
SWIDTH 540 0
DWIDTH 9 0
BBX 7 14 1 -3
BITMAP
22
88
22
88
22
88
22
88
22
88
22
88
22
88
ENDCHAR
STARTCHAR 2592
ENCODING 9618
SWIDTH 540 0
DWIDTH 9 0
BBX 8 14 0 -3
BITMAP
55
AA
55
AA
55
AA
55
AA
55
AA
55
AA
55
AA
ENDCHAR
STARTCHAR 2593
ENCODING 9619
SWIDTH 540 0
DWIDTH 9 0
BBX 8 14 0 -3
BITMAP
DD
77
DD
77
DD
77
DD
77
DD
77
DD
77
DD
77
ENDCHAR
STARTCHAR 25A0
ENCODING 9632
SWIDTH 540 0
DWIDTH 9 0
BBX 5 6 2 1
BITMAP
F8
F8
F8
F8
F8
F8
ENDCHAR
STARTCHAR 25A1
ENCODING 9633
SWIDTH 540 0
DWIDTH 9 0
BBX 6 6 1 1
BITMAP
FC
CC
CC
CC
CC
FC
ENDCHAR
STARTCHAR 25AA
ENCODING 9642
SWIDTH 540 0
DWIDTH 9 0
BBX 5 4 2 2
BITMAP
F8
F8
F8
F8
ENDCHAR
STARTCHAR 25AB
ENCODING 9643
SWIDTH 540 0
DWIDTH 9 0
BBX 5 4 2 2
BITMAP
F8
D8
D8
F8
ENDCHAR
STARTCHAR 25AC
ENCODING 9644
SWIDTH 540 0
DWIDTH 9 0
BBX 7 3 1 0
BITMAP
FE
FE
FE
ENDCHAR
STARTCHAR 25B2
ENCODING 9650
SWIDTH 540 0
DWIDTH 9 0
BBX 7 7 1 1
BITMAP
10
38
38
7C
7C
FE
FE
ENDCHAR
STARTCHAR 25BA
ENCODING 9658
SWIDTH 540 0
DWIDTH 9 0
BBX 7 9 1 0
BITMAP
80
C0
E0
F8
FE
F8
E0
C0
80
ENDCHAR
STARTCHAR 25BC
ENCODING 9660
SWIDTH 540 0
DWIDTH 9 0
BBX 7 7 1 1
BITMAP
FE
FE
7C
7C
38
38
10
ENDCHAR
STARTCHAR 25C4
ENCODING 9668
SWIDTH 540 0
DWIDTH 9 0
BBX 7 9 1 0
BITMAP
02
06
0E
3E
FE
3E
0E
06
02
ENDCHAR
STARTCHAR 25CA
ENCODING 9674
SWIDTH 540 0
DWIDTH 9 0
BBX 7 7 1 1
BITMAP
10
38
6C
C6
6C
38
10
ENDCHAR
STARTCHAR 25CB
ENCODING 9675
SWIDTH 540 0
DWIDTH 9 0
BBX 6 6 1 1
BITMAP
78
CC
84
84
CC
78
ENDCHAR
STARTCHAR 25CF
ENCODING 9679
SWIDTH 540 0
DWIDTH 9 0
BBX 6 6 1 1
BITMAP
78
FC
FC
FC
FC
78
ENDCHAR
STARTCHAR 25D8
ENCODING 9688
SWIDTH 540 0
DWIDTH 9 0
BBX 8 14 0 -3
BITMAP
FF
FF
FF
FF
FF
E7
C3
C3
E7
FF
FF
FF
FF
FF
ENDCHAR
STARTCHAR 25D9
ENCODING 9689
SWIDTH 540 0
DWIDTH 9 0
BBX 8 14 0 -3
BITMAP
FF
FF
FF
FF
C3
99
BD
BD
99
C3
FF
FF
FF
FF
ENDCHAR
STARTCHAR 25E6
ENCODING 9702
SWIDTH 540 0
DWIDTH 9 0
BBX 5 4 2 2
BITMAP
70
D8
D8
70
ENDCHAR
STARTCHAR 263A
ENCODING 9786
SWIDTH 540 0
DWIDTH 9 0
BBX 8 9 0 0
BITMAP
7E
81
A5
81
81
BD
99
81
7E
ENDCHAR
STARTCHAR 263B
ENCODING 9787
SWIDTH 540 0
DWIDTH 9 0
BBX 8 9 0 0
BITMAP
7E
FF
DB
FF
FF
C3
E7
FF
7E
ENDCHAR
STARTCHAR 263C
ENCODING 9788
SWIDTH 540 0
DWIDTH 9 0
BBX 8 9 0 0
BITMAP
18
18
DB
3C
E7
3C
DB
18
18
ENDCHAR
STARTCHAR 2640
ENCODING 9792
SWIDTH 540 0
DWIDTH 9 0
BBX 6 9 1 0
BITMAP
78
CC
CC
CC
78
30
FC
30
30
ENDCHAR
STARTCHAR 2642
ENCODING 9794
SWIDTH 540 0
DWIDTH 9 0
BBX 7 9 1 0
BITMAP
1E
0E
1A
32
78
CC
CC
CC
78
ENDCHAR
STARTCHAR 2660
ENCODING 9824
SWIDTH 540 0
DWIDTH 9 0
BBX 8 9 0 0
BITMAP
18
3C
7E
FF
FF
7E
18
18
3C
ENDCHAR
STARTCHAR 2663
ENCODING 9827
SWIDTH 540 0
DWIDTH 9 0
BBX 8 9 0 0
BITMAP
18
3C
3C
E7
E7
E7
18
18
3C
ENDCHAR
STARTCHAR 2665
ENCODING 9829
SWIDTH 540 0
DWIDTH 9 0
BBX 7 8 1 0
BITMAP
6C
FE
FE
FE
FE
7C
38
10
ENDCHAR
STARTCHAR 2666
ENCODING 9830
SWIDTH 540 0
DWIDTH 9 0
BBX 7 7 1 1
BITMAP
10
38
7C
FE
7C
38
10
ENDCHAR
STARTCHAR 266A
ENCODING 9834
SWIDTH 540 0
DWIDTH 9 0
BBX 8 9 0 0
BITMAP
3F
33
3F
30
30
30
70
F0
E0
ENDCHAR
STARTCHAR 266B
ENCODING 9835
SWIDTH 540 0
DWIDTH 9 0
BBX 8 10 0 -1
BITMAP
7F
63
7F
63
63
63
67
E7
E6
C0
ENDCHAR
STARTCHAR 2713
ENCODING 10003
SWIDTH 540 0
DWIDTH 9 0
BBX 7 10 1 0
BITMAP
06
06
06
0C
0C
0C
98
D8
78
30
ENDCHAR
STARTCHAR FB01
ENCODING 64257
SWIDTH 540 0
DWIDTH 9 0
BBX 8 9 0 0
BITMAP
3E
66
60
FE
66
66
66
66
F7
ENDCHAR
STARTCHAR FB02
ENCODING 64258
SWIDTH 540 0
DWIDTH 9 0
BBX 8 9 0 0
BITMAP
3E
66
66
F6
66
66
66
66
F7
ENDCHAR
STARTCHAR FFFD
ENCODING 65533
SWIDTH 540 0
DWIDTH 9 0
BBX 9 14 0 -3
BITMAP
FF80
FF80
C180
9C80
9C80
F980
F380
F380
FF80
F380
F380
FF80
FF80
FF80
ENDCHAR
ENDFONT
